<?xml version="1.0" encoding="utf-8" standalone="no"?>
<!DOCTYPE svg PUBLIC "-//W3C//DTD SVG 1.1//EN"
  "http://www.w3.org/Graphics/SVG/1.1/DTD/svg11.dtd">
<svg xmlns:xlink="http://www.w3.org/1999/xlink" width="701.856pt" height="454.73963pt" viewBox="0 0 701.856 454.73963" xmlns="http://www.w3.org/2000/svg" version="1.1">
 <metadata>
  <rdf:RDF xmlns:dc="http://purl.org/dc/elements/1.1/" xmlns:cc="http://creativecommons.org/ns#" xmlns:rdf="http://www.w3.org/1999/02/22-rdf-syntax-ns#">
   <cc:Work>
    <dc:type rdf:resource="http://purl.org/dc/dcmitype/StillImage"/>
    <dc:date>2026-06-23T11:15:55.865939</dc:date>
    <dc:format>image/svg+xml</dc:format>
    <dc:creator>
     <cc:Agent>
      <dc:title>Matplotlib v3.10.1, https://matplotlib.org/</dc:title>
     </cc:Agent>
    </dc:creator>
   </cc:Work>
  </rdf:RDF>
 </metadata>
 <defs>
  <style type="text/css">*{stroke-linejoin: round; stroke-linecap: butt}</style>
 </defs>
 <g id="figure_1">
  <g id="patch_1">
   <path d="M 0 454.73963 
L 701.856 454.73963 
L 701.856 0 
L 0 0 
z
" style="fill: #fbfaf5"/>
  </g>
  <g id="axes_1">
   <g id="patch_2">
    <path d="M 350.928 400.703401 
C 397.242009 400.703401 441.66535 382.302651 474.4143 349.553701 
C 507.163249 316.804752 525.564 272.38141 525.564 226.067401 
C 525.564 179.753393 507.163249 135.330051 474.4143 102.581101 
C 441.66535 69.832152 397.242009 51.431401 350.928 51.431401 
C 304.613991 51.431401 260.19065 69.832152 227.4417 102.581101 
C 194.692751 135.330051 176.292 179.753393 176.292 226.067401 
C 176.292 272.38141 194.692751 316.804752 227.4417 349.553701 
C 260.19065 382.302651 304.613991 400.703401 350.928 400.703401 
L 350.928 400.703401 
z
" clip-path="url(#p5b0b9923d8)" style="fill: none; stroke: #e5e7eb; stroke-linejoin: miter"/>
   </g>
   <g id="patch_3">
    <path d="M 467.094319 199.969368 
C 483.965611 190.228724 498.278886 177.648027 506.881814 164.99803 
C 515.484741 152.348033 517.674928 140.661553 512.970013 132.512401 
C 508.265098 124.363249 497.049216 120.416767 481.792534 121.542122 
C 466.535852 122.667478 448.484011 128.77279 431.612719 138.513434 
C 414.741428 148.254079 400.428152 160.834776 391.825225 173.484772 
C 383.222298 186.134769 381.03211 197.821249 385.737025 205.970401 
C 390.44194 214.119553 401.657823 218.066035 416.914505 216.94068 
C 432.171187 215.815325 450.223028 209.710013 467.094319 199.969368 
z
" clip-path="url(#p5b0b9923d8)" style="fill: #ff0000; opacity: 0.82; stroke: #374151; stroke-width: 1.4; stroke-linejoin: miter"/>
   </g>
   <g id="patch_4">
    <path d="M 423.141071 131.404877 
C 429.804064 113.098454 432.681954 94.260684 431.140917 79.04037 
C 429.599881 63.820055 423.765737 53.459866 414.923389 50.241515 
C 406.081041 47.023163 394.952427 51.209413 383.988495 61.878291 
C 373.024563 72.54717 363.120469 88.82761 356.457476 107.134034 
C 349.794482 125.440457 346.916593 144.278227 348.45763 159.498541 
C 349.998666 174.718856 355.83281 185.079044 364.675158 188.297396 
C 373.517506 191.515748 384.64612 187.329498 395.610052 176.660619 
C 406.573984 165.991741 416.478078 149.711301 423.141071 131.404877 
z
" clip-path="url(#p5b0b9923d8)" style="fill: #ff7f00; opacity: 0.82; stroke: #374151; stroke-width: 1.4; stroke-linejoin: miter"/>
   </g>
   <g id="patch_5">
    <path d="M 345.398524 107.134034 
C 338.735531 88.82761 328.831437 72.54717 317.867505 61.878291 
C 306.903573 51.209413 295.774959 47.023163 286.932611 50.241515 
C 278.090263 53.459866 272.256119 63.820055 270.715083 79.04037 
C 269.174046 94.260684 272.051936 113.098454 278.714929 131.404877 
C 285.377922 149.711301 295.282016 165.991741 306.245948 176.660619 
C 317.20988 187.329498 328.338494 191.515748 337.180842 188.297396 
C 346.02319 185.079044 351.857334 174.718856 353.39837 159.498541 
C 354.939407 144.278227 352.061518 125.440457 345.398524 107.134034 
z
" clip-path="url(#p5b0b9923d8)" style="fill: #ffff00; opacity: 0.82; stroke: #374151; stroke-width: 1.4; stroke-linejoin: miter"/>
   </g>
   <g id="patch_6">
    <path d="M 270.243281 138.513434 
C 253.371989 128.77279 235.320148 122.667478 220.063466 121.542122 
C 204.806784 120.416767 193.590902 124.363249 188.885987 132.512401 
C 184.181072 140.661553 186.371259 152.348033 194.974186 164.99803 
C 203.577114 177.648027 217.890389 190.228724 234.761681 199.969368 
C 251.632972 209.710013 269.684813 215.815325 284.941495 216.94068 
C 300.198177 218.066035 311.41406 214.119553 316.118975 205.970401 
C 320.82389 197.821249 318.633702 186.134769 310.030775 173.484772 
C 301.427848 160.834776 287.114572 148.254079 270.243281 138.513434 
z
" clip-path="url(#p5b0b9923d8)" style="fill: #7fff00; opacity: 0.82; stroke: #374151; stroke-width: 1.4; stroke-linejoin: miter"/>
   </g>
   <g id="patch_7">
    <path d="M 237.276 190.585801 
C 217.794711 190.585801 199.108702 194.324366 185.33335 200.978121 
C 171.557998 207.631876 163.818 216.657571 163.818 226.067401 
C 163.818 235.477232 171.557998 244.502926 185.33335 251.156681 
C 199.108702 257.810436 217.794711 261.549001 237.276 261.549001 
C 256.757289 261.549001 275.443298 257.810436 289.21865 251.156681 
C 302.994002 244.502926 310.734 235.477232 310.734 226.067401 
C 310.734 216.657571 302.994002 207.631876 289.21865 200.978121 
C 275.443298 194.324366 256.757289 190.585801 237.276 190.585801 
z
" clip-path="url(#p5b0b9923d8)" style="fill: #00ff00; opacity: 0.82; stroke: #374151; stroke-width: 1.4; stroke-linejoin: miter"/>
   </g>
   <g id="patch_8">
    <path d="M 234.761681 252.165434 
C 217.890389 261.906079 203.577114 274.486776 194.974186 287.136772 
C 186.371259 299.786769 184.181072 311.473249 188.885987 319.622401 
C 193.590902 327.771553 204.806784 331.718035 220.063466 330.59268 
C 235.320148 329.467325 253.371989 323.362013 270.243281 313.621368 
C 287.114572 303.880724 301.427848 291.300027 310.030775 278.65003 
C 318.633702 266.000033 320.82389 254.313553 316.118975 246.164401 
C 311.41406 238.015249 300.198177 234.068767 284.941495 235.194122 
C 269.684813 236.319478 251.632972 242.42479 234.761681 252.165434 
z
" clip-path="url(#p5b0b9923d8)" style="fill: #00ffff; opacity: 0.82; stroke: #374151; stroke-width: 1.4; stroke-linejoin: miter"/>
   </g>
   <g id="patch_9">
    <path d="M 278.714929 320.729925 
C 272.051936 339.036349 269.174046 357.874118 270.715083 373.094433 
C 272.256119 388.314747 278.090263 398.674936 286.932611 401.893287 
C 295.774959 405.111639 306.903573 400.925389 317.867505 390.256511 
C 328.831437 379.587633 338.735531 363.307193 345.398524 345.000769 
C 352.061518 326.694345 354.939407 307.856576 353.39837 292.636261 
C 351.857334 277.415947 346.02319 267.055758 337.180842 263.837406 
C 328.338494 260.619055 317.20988 264.805305 306.245948 275.474183 
C 295.282016 286.143061 285.377922 302.423501 278.714929 320.729925 
z
" clip-path="url(#p5b0b9923d8)" style="fill: #0000ff; opacity: 0.82; stroke: #374151; stroke-width: 1.4; stroke-linejoin: miter"/>
   </g>
   <g id="text_1">
    <!-- High-performance -->
    <g style="fill: #111827" transform="translate(524.200575 90.652445) scale(0.105 -0.105)">
     <defs>
      <path id="DejaVuSans-48" d="M 628 4666 
L 1259 4666 
L 1259 2753 
L 3553 2753 
L 3553 4666 
L 4184 4666 
L 4184 0 
L 3553 0 
L 3553 2222 
L 1259 2222 
L 1259 0 
L 628 0 
L 628 4666 
z
" transform="scale(0.015625)"/>
      <path id="DejaVuSans-69" d="M 603 3500 
L 1178 3500 
L 1178 0 
L 603 0 
L 603 3500 
z
M 603 4863 
L 1178 4863 
L 1178 4134 
L 603 4134 
L 603 4863 
z
" transform="scale(0.015625)"/>
      <path id="DejaVuSans-67" d="M 2906 1791 
Q 2906 2416 2648 2759 
Q 2391 3103 1925 3103 
Q 1463 3103 1205 2759 
Q 947 2416 947 1791 
Q 947 1169 1205 825 
Q 1463 481 1925 481 
Q 2391 481 2648 825 
Q 2906 1169 2906 1791 
z
M 3481 434 
Q 3481 -459 3084 -895 
Q 2688 -1331 1869 -1331 
Q 1566 -1331 1297 -1286 
Q 1028 -1241 775 -1147 
L 775 -588 
Q 1028 -725 1275 -790 
Q 1522 -856 1778 -856 
Q 2344 -856 2625 -561 
Q 2906 -266 2906 331 
L 2906 616 
Q 2728 306 2450 153 
Q 2172 0 1784 0 
Q 1141 0 747 490 
Q 353 981 353 1791 
Q 353 2603 747 3093 
Q 1141 3584 1784 3584 
Q 2172 3584 2450 3431 
Q 2728 3278 2906 2969 
L 2906 3500 
L 3481 3500 
L 3481 434 
z
" transform="scale(0.015625)"/>
      <path id="DejaVuSans-68" d="M 3513 2113 
L 3513 0 
L 2938 0 
L 2938 2094 
Q 2938 2591 2744 2837 
Q 2550 3084 2163 3084 
Q 1697 3084 1428 2787 
Q 1159 2491 1159 1978 
L 1159 0 
L 581 0 
L 581 4863 
L 1159 4863 
L 1159 2956 
Q 1366 3272 1645 3428 
Q 1925 3584 2291 3584 
Q 2894 3584 3203 3211 
Q 3513 2838 3513 2113 
z
" transform="scale(0.015625)"/>
      <path id="DejaVuSans-2d" d="M 313 2009 
L 1997 2009 
L 1997 1497 
L 313 1497 
L 313 2009 
z
" transform="scale(0.015625)"/>
      <path id="DejaVuSans-70" d="M 1159 525 
L 1159 -1331 
L 581 -1331 
L 581 3500 
L 1159 3500 
L 1159 2969 
Q 1341 3281 1617 3432 
Q 1894 3584 2278 3584 
Q 2916 3584 3314 3078 
Q 3713 2572 3713 1747 
Q 3713 922 3314 415 
Q 2916 -91 2278 -91 
Q 1894 -91 1617 61 
Q 1341 213 1159 525 
z
M 3116 1747 
Q 3116 2381 2855 2742 
Q 2594 3103 2138 3103 
Q 1681 3103 1420 2742 
Q 1159 2381 1159 1747 
Q 1159 1113 1420 752 
Q 1681 391 2138 391 
Q 2594 391 2855 752 
Q 3116 1113 3116 1747 
z
" transform="scale(0.015625)"/>
      <path id="DejaVuSans-65" d="M 3597 1894 
L 3597 1613 
L 953 1613 
Q 991 1019 1311 708 
Q 1631 397 2203 397 
Q 2534 397 2845 478 
Q 3156 559 3463 722 
L 3463 178 
Q 3153 47 2828 -22 
Q 2503 -91 2169 -91 
Q 1331 -91 842 396 
Q 353 884 353 1716 
Q 353 2575 817 3079 
Q 1281 3584 2069 3584 
Q 2775 3584 3186 3129 
Q 3597 2675 3597 1894 
z
M 3022 2063 
Q 3016 2534 2758 2815 
Q 2500 3097 2075 3097 
Q 1594 3097 1305 2825 
Q 1016 2553 972 2059 
L 3022 2063 
z
" transform="scale(0.015625)"/>
      <path id="DejaVuSans-72" d="M 2631 2963 
Q 2534 3019 2420 3045 
Q 2306 3072 2169 3072 
Q 1681 3072 1420 2755 
Q 1159 2438 1159 1844 
L 1159 0 
L 581 0 
L 581 3500 
L 1159 3500 
L 1159 2956 
Q 1341 3275 1631 3429 
Q 1922 3584 2338 3584 
Q 2397 3584 2469 3576 
Q 2541 3569 2628 3553 
L 2631 2963 
z
" transform="scale(0.015625)"/>
      <path id="DejaVuSans-66" d="M 2375 4863 
L 2375 4384 
L 1825 4384 
Q 1516 4384 1395 4259 
Q 1275 4134 1275 3809 
L 1275 3500 
L 2222 3500 
L 2222 3053 
L 1275 3053 
L 1275 0 
L 697 0 
L 697 3053 
L 147 3053 
L 147 3500 
L 697 3500 
L 697 3744 
Q 697 4328 969 4595 
Q 1241 4863 1831 4863 
L 2375 4863 
z
" transform="scale(0.015625)"/>
      <path id="DejaVuSans-6f" d="M 1959 3097 
Q 1497 3097 1228 2736 
Q 959 2375 959 1747 
Q 959 1119 1226 758 
Q 1494 397 1959 397 
Q 2419 397 2687 759 
Q 2956 1122 2956 1747 
Q 2956 2369 2687 2733 
Q 2419 3097 1959 3097 
z
M 1959 3584 
Q 2709 3584 3137 3096 
Q 3566 2609 3566 1747 
Q 3566 888 3137 398 
Q 2709 -91 1959 -91 
Q 1206 -91 779 398 
Q 353 888 353 1747 
Q 353 2609 779 3096 
Q 1206 3584 1959 3584 
z
" transform="scale(0.015625)"/>
      <path id="DejaVuSans-6d" d="M 3328 2828 
Q 3544 3216 3844 3400 
Q 4144 3584 4550 3584 
Q 5097 3584 5394 3201 
Q 5691 2819 5691 2113 
L 5691 0 
L 5113 0 
L 5113 2094 
Q 5113 2597 4934 2840 
Q 4756 3084 4391 3084 
Q 3944 3084 3684 2787 
Q 3425 2491 3425 1978 
L 3425 0 
L 2847 0 
L 2847 2094 
Q 2847 2600 2669 2842 
Q 2491 3084 2119 3084 
Q 1678 3084 1418 2786 
Q 1159 2488 1159 1978 
L 1159 0 
L 581 0 
L 581 3500 
L 1159 3500 
L 1159 2956 
Q 1356 3278 1631 3431 
Q 1906 3584 2284 3584 
Q 2666 3584 2933 3390 
Q 3200 3197 3328 2828 
z
" transform="scale(0.015625)"/>
      <path id="DejaVuSans-61" d="M 2194 1759 
Q 1497 1759 1228 1600 
Q 959 1441 959 1056 
Q 959 750 1161 570 
Q 1363 391 1709 391 
Q 2188 391 2477 730 
Q 2766 1069 2766 1631 
L 2766 1759 
L 2194 1759 
z
M 3341 1997 
L 3341 0 
L 2766 0 
L 2766 531 
Q 2569 213 2275 61 
Q 1981 -91 1556 -91 
Q 1019 -91 701 211 
Q 384 513 384 1019 
Q 384 1609 779 1909 
Q 1175 2209 1959 2209 
L 2766 2209 
L 2766 2266 
Q 2766 2663 2505 2880 
Q 2244 3097 1772 3097 
Q 1472 3097 1187 3025 
Q 903 2953 641 2809 
L 641 3341 
Q 956 3463 1253 3523 
Q 1550 3584 1831 3584 
Q 2591 3584 2966 3190 
Q 3341 2797 3341 1997 
z
" transform="scale(0.015625)"/>
      <path id="DejaVuSans-6e" d="M 3513 2113 
L 3513 0 
L 2938 0 
L 2938 2094 
Q 2938 2591 2744 2837 
Q 2550 3084 2163 3084 
Q 1697 3084 1428 2787 
Q 1159 2491 1159 1978 
L 1159 0 
L 581 0 
L 581 3500 
L 1159 3500 
L 1159 2956 
Q 1366 3272 1645 3428 
Q 1925 3584 2291 3584 
Q 2894 3584 3203 3211 
Q 3513 2838 3513 2113 
z
" transform="scale(0.015625)"/>
      <path id="DejaVuSans-63" d="M 3122 3366 
L 3122 2828 
Q 2878 2963 2633 3030 
Q 2388 3097 2138 3097 
Q 1578 3097 1268 2742 
Q 959 2388 959 1747 
Q 959 1106 1268 751 
Q 1578 397 2138 397 
Q 2388 397 2633 464 
Q 2878 531 3122 666 
L 3122 134 
Q 2881 22 2623 -34 
Q 2366 -91 2075 -91 
Q 1284 -91 818 406 
Q 353 903 353 1747 
Q 353 2603 823 3093 
Q 1294 3584 2113 3584 
Q 2378 3584 2631 3529 
Q 2884 3475 3122 3366 
z
" transform="scale(0.015625)"/>
     </defs>
     <use xlink:href="#DejaVuSans-48"/>
     <use xlink:href="#DejaVuSans-69" transform="translate(75.195312 0)"/>
     <use xlink:href="#DejaVuSans-67" transform="translate(102.978516 0)"/>
     <use xlink:href="#DejaVuSans-68" transform="translate(166.455078 0)"/>
     <use xlink:href="#DejaVuSans-2d" transform="translate(229.833984 0)"/>
     <use xlink:href="#DejaVuSans-70" transform="translate(265.917969 0)"/>
     <use xlink:href="#DejaVuSans-65" transform="translate(329.394531 0)"/>
     <use xlink:href="#DejaVuSans-72" transform="translate(390.917969 0)"/>
     <use xlink:href="#DejaVuSans-66" transform="translate(432.03125 0)"/>
     <use xlink:href="#DejaVuSans-6f" transform="translate(467.236328 0)"/>
     <use xlink:href="#DejaVuSans-72" transform="translate(528.417969 0)"/>
     <use xlink:href="#DejaVuSans-6d" transform="translate(567.78125 0)"/>
     <use xlink:href="#DejaVuSans-61" transform="translate(665.193359 0)"/>
     <use xlink:href="#DejaVuSans-6e" transform="translate(726.472656 0)"/>
     <use xlink:href="#DejaVuSans-63" transform="translate(789.851562 0)"/>
     <use xlink:href="#DejaVuSans-65" transform="translate(844.832031 0)"/>
    </g>
    <!-- parallel exploration -->
    <g style="fill: #111827" transform="translate(520.903739 101.452745) scale(0.105 -0.105)">
     <defs>
      <path id="DejaVuSans-6c" d="M 603 4863 
L 1178 4863 
L 1178 0 
L 603 0 
L 603 4863 
z
" transform="scale(0.015625)"/>
      <path id="DejaVuSans-20" transform="scale(0.015625)"/>
      <path id="DejaVuSans-78" d="M 3513 3500 
L 2247 1797 
L 3578 0 
L 2900 0 
L 1881 1375 
L 863 0 
L 184 0 
L 1544 1831 
L 300 3500 
L 978 3500 
L 1906 2253 
L 2834 3500 
L 3513 3500 
z
" transform="scale(0.015625)"/>
      <path id="DejaVuSans-74" d="M 1172 4494 
L 1172 3500 
L 2356 3500 
L 2356 3053 
L 1172 3053 
L 1172 1153 
Q 1172 725 1289 603 
Q 1406 481 1766 481 
L 2356 481 
L 2356 0 
L 1766 0 
Q 1100 0 847 248 
Q 594 497 594 1153 
L 594 3053 
L 172 3053 
L 172 3500 
L 594 3500 
L 594 4494 
L 1172 4494 
z
" transform="scale(0.015625)"/>
     </defs>
     <use xlink:href="#DejaVuSans-70"/>
     <use xlink:href="#DejaVuSans-61" transform="translate(63.476562 0)"/>
     <use xlink:href="#DejaVuSans-72" transform="translate(124.755859 0)"/>
     <use xlink:href="#DejaVuSans-61" transform="translate(165.869141 0)"/>
     <use xlink:href="#DejaVuSans-6c" transform="translate(227.148438 0)"/>
     <use xlink:href="#DejaVuSans-6c" transform="translate(254.931641 0)"/>
     <use xlink:href="#DejaVuSans-65" transform="translate(282.714844 0)"/>
     <use xlink:href="#DejaVuSans-6c" transform="translate(344.238281 0)"/>
     <use xlink:href="#DejaVuSans-20" transform="translate(372.021484 0)"/>
     <use xlink:href="#DejaVuSans-65" transform="translate(403.808594 0)"/>
     <use xlink:href="#DejaVuSans-78" transform="translate(463.582031 0)"/>
     <use xlink:href="#DejaVuSans-70" transform="translate(522.761719 0)"/>
     <use xlink:href="#DejaVuSans-6c" transform="translate(586.238281 0)"/>
     <use xlink:href="#DejaVuSans-6f" transform="translate(614.021484 0)"/>
     <use xlink:href="#DejaVuSans-72" transform="translate(675.203125 0)"/>
     <use xlink:href="#DejaVuSans-61" transform="translate(716.316406 0)"/>
     <use xlink:href="#DejaVuSans-74" transform="translate(777.595703 0)"/>
     <use xlink:href="#DejaVuSans-69" transform="translate(816.804688 0)"/>
     <use xlink:href="#DejaVuSans-6f" transform="translate(844.587891 0)"/>
     <use xlink:href="#DejaVuSans-6e" transform="translate(905.769531 0)"/>
    </g>
    <!-- unparalleled coverage -->
    <g style="fill: #111827" transform="translate(512.991825 112.253045) scale(0.105 -0.105)">
     <defs>
      <path id="DejaVuSans-75" d="M 544 1381 
L 544 3500 
L 1119 3500 
L 1119 1403 
Q 1119 906 1312 657 
Q 1506 409 1894 409 
Q 2359 409 2629 706 
Q 2900 1003 2900 1516 
L 2900 3500 
L 3475 3500 
L 3475 0 
L 2900 0 
L 2900 538 
Q 2691 219 2414 64 
Q 2138 -91 1772 -91 
Q 1169 -91 856 284 
Q 544 659 544 1381 
z
M 1991 3584 
L 1991 3584 
z
" transform="scale(0.015625)"/>
      <path id="DejaVuSans-64" d="M 2906 2969 
L 2906 4863 
L 3481 4863 
L 3481 0 
L 2906 0 
L 2906 525 
Q 2725 213 2448 61 
Q 2172 -91 1784 -91 
Q 1150 -91 751 415 
Q 353 922 353 1747 
Q 353 2572 751 3078 
Q 1150 3584 1784 3584 
Q 2172 3584 2448 3432 
Q 2725 3281 2906 2969 
z
M 947 1747 
Q 947 1113 1208 752 
Q 1469 391 1925 391 
Q 2381 391 2643 752 
Q 2906 1113 2906 1747 
Q 2906 2381 2643 2742 
Q 2381 3103 1925 3103 
Q 1469 3103 1208 2742 
Q 947 2381 947 1747 
z
" transform="scale(0.015625)"/>
      <path id="DejaVuSans-76" d="M 191 3500 
L 800 3500 
L 1894 563 
L 2988 3500 
L 3597 3500 
L 2284 0 
L 1503 0 
L 191 3500 
z
" transform="scale(0.015625)"/>
     </defs>
     <use xlink:href="#DejaVuSans-75"/>
     <use xlink:href="#DejaVuSans-6e" transform="translate(63.378906 0)"/>
     <use xlink:href="#DejaVuSans-70" transform="translate(126.757812 0)"/>
     <use xlink:href="#DejaVuSans-61" transform="translate(190.234375 0)"/>
     <use xlink:href="#DejaVuSans-72" transform="translate(251.513672 0)"/>
     <use xlink:href="#DejaVuSans-61" transform="translate(292.626953 0)"/>
     <use xlink:href="#DejaVuSans-6c" transform="translate(353.90625 0)"/>
     <use xlink:href="#DejaVuSans-6c" transform="translate(381.689453 0)"/>
     <use xlink:href="#DejaVuSans-65" transform="translate(409.472656 0)"/>
     <use xlink:href="#DejaVuSans-6c" transform="translate(470.996094 0)"/>
     <use xlink:href="#DejaVuSans-65" transform="translate(498.779297 0)"/>
     <use xlink:href="#DejaVuSans-64" transform="translate(560.302734 0)"/>
     <use xlink:href="#DejaVuSans-20" transform="translate(623.779297 0)"/>
     <use xlink:href="#DejaVuSans-63" transform="translate(655.566406 0)"/>
     <use xlink:href="#DejaVuSans-6f" transform="translate(710.546875 0)"/>
     <use xlink:href="#DejaVuSans-76" transform="translate(771.728516 0)"/>
     <use xlink:href="#DejaVuSans-65" transform="translate(830.908203 0)"/>
     <use xlink:href="#DejaVuSans-72" transform="translate(892.431641 0)"/>
     <use xlink:href="#DejaVuSans-61" transform="translate(933.544922 0)"/>
     <use xlink:href="#DejaVuSans-67" transform="translate(994.824219 0)"/>
     <use xlink:href="#DejaVuSans-65" transform="translate(1058.300781 0)"/>
    </g>
   </g>
   <g id="text_2">
    <!-- Find bugs blazing fast -->
    <g style="fill: #111827" transform="translate(369.542004 15.178359) scale(0.105 -0.105)">
     <defs>
      <path id="DejaVuSans-46" d="M 628 4666 
L 3309 4666 
L 3309 4134 
L 1259 4134 
L 1259 2759 
L 3109 2759 
L 3109 2228 
L 1259 2228 
L 1259 0 
L 628 0 
L 628 4666 
z
" transform="scale(0.015625)"/>
      <path id="DejaVuSans-62" d="M 3116 1747 
Q 3116 2381 2855 2742 
Q 2594 3103 2138 3103 
Q 1681 3103 1420 2742 
Q 1159 2381 1159 1747 
Q 1159 1113 1420 752 
Q 1681 391 2138 391 
Q 2594 391 2855 752 
Q 3116 1113 3116 1747 
z
M 1159 2969 
Q 1341 3281 1617 3432 
Q 1894 3584 2278 3584 
Q 2916 3584 3314 3078 
Q 3713 2572 3713 1747 
Q 3713 922 3314 415 
Q 2916 -91 2278 -91 
Q 1894 -91 1617 61 
Q 1341 213 1159 525 
L 1159 0 
L 581 0 
L 581 4863 
L 1159 4863 
L 1159 2969 
z
" transform="scale(0.015625)"/>
      <path id="DejaVuSans-73" d="M 2834 3397 
L 2834 2853 
Q 2591 2978 2328 3040 
Q 2066 3103 1784 3103 
Q 1356 3103 1142 2972 
Q 928 2841 928 2578 
Q 928 2378 1081 2264 
Q 1234 2150 1697 2047 
L 1894 2003 
Q 2506 1872 2764 1633 
Q 3022 1394 3022 966 
Q 3022 478 2636 193 
Q 2250 -91 1575 -91 
Q 1294 -91 989 -36 
Q 684 19 347 128 
L 347 722 
Q 666 556 975 473 
Q 1284 391 1588 391 
Q 1994 391 2212 530 
Q 2431 669 2431 922 
Q 2431 1156 2273 1281 
Q 2116 1406 1581 1522 
L 1381 1569 
Q 847 1681 609 1914 
Q 372 2147 372 2553 
Q 372 3047 722 3315 
Q 1072 3584 1716 3584 
Q 2034 3584 2315 3537 
Q 2597 3491 2834 3397 
z
" transform="scale(0.015625)"/>
      <path id="DejaVuSans-7a" d="M 353 3500 
L 3084 3500 
L 3084 2975 
L 922 459 
L 3084 459 
L 3084 0 
L 275 0 
L 275 525 
L 2438 3041 
L 353 3041 
L 353 3500 
z
" transform="scale(0.015625)"/>
     </defs>
     <use xlink:href="#DejaVuSans-46"/>
     <use xlink:href="#DejaVuSans-69" transform="translate(50.269531 0)"/>
     <use xlink:href="#DejaVuSans-6e" transform="translate(78.052734 0)"/>
     <use xlink:href="#DejaVuSans-64" transform="translate(141.431641 0)"/>
     <use xlink:href="#DejaVuSans-20" transform="translate(204.908203 0)"/>
     <use xlink:href="#DejaVuSans-62" transform="translate(236.695312 0)"/>
     <use xlink:href="#DejaVuSans-75" transform="translate(300.171875 0)"/>
     <use xlink:href="#DejaVuSans-67" transform="translate(363.550781 0)"/>
     <use xlink:href="#DejaVuSans-73" transform="translate(427.027344 0)"/>
     <use xlink:href="#DejaVuSans-20" transform="translate(479.126953 0)"/>
     <use xlink:href="#DejaVuSans-62" transform="translate(510.914062 0)"/>
     <use xlink:href="#DejaVuSans-6c" transform="translate(574.390625 0)"/>
     <use xlink:href="#DejaVuSans-61" transform="translate(602.173828 0)"/>
     <use xlink:href="#DejaVuSans-7a" transform="translate(663.453125 0)"/>
     <use xlink:href="#DejaVuSans-69" transform="translate(715.943359 0)"/>
     <use xlink:href="#DejaVuSans-6e" transform="translate(743.726562 0)"/>
     <use xlink:href="#DejaVuSans-67" transform="translate(807.105469 0)"/>
     <use xlink:href="#DejaVuSans-20" transform="translate(870.582031 0)"/>
     <use xlink:href="#DejaVuSans-66" transform="translate(902.369141 0)"/>
     <use xlink:href="#DejaVuSans-61" transform="translate(937.574219 0)"/>
     <use xlink:href="#DejaVuSans-73" transform="translate(998.853516 0)"/>
     <use xlink:href="#DejaVuSans-74" transform="translate(1050.953125 0)"/>
    </g>
    <!-- Model-based testing -->
    <g style="fill: #111827" transform="translate(373.399114 25.978659) scale(0.105 -0.105)">
     <defs>
      <path id="DejaVuSans-4d" d="M 628 4666 
L 1569 4666 
L 2759 1491 
L 3956 4666 
L 4897 4666 
L 4897 0 
L 4281 0 
L 4281 4097 
L 3078 897 
L 2444 897 
L 1241 4097 
L 1241 0 
L 628 0 
L 628 4666 
z
" transform="scale(0.015625)"/>
     </defs>
     <use xlink:href="#DejaVuSans-4d"/>
     <use xlink:href="#DejaVuSans-6f" transform="translate(86.279297 0)"/>
     <use xlink:href="#DejaVuSans-64" transform="translate(147.460938 0)"/>
     <use xlink:href="#DejaVuSans-65" transform="translate(210.9375 0)"/>
     <use xlink:href="#DejaVuSans-6c" transform="translate(272.460938 0)"/>
     <use xlink:href="#DejaVuSans-2d" transform="translate(300.244141 0)"/>
     <use xlink:href="#DejaVuSans-62" transform="translate(336.328125 0)"/>
     <use xlink:href="#DejaVuSans-61" transform="translate(399.804688 0)"/>
     <use xlink:href="#DejaVuSans-73" transform="translate(461.083984 0)"/>
     <use xlink:href="#DejaVuSans-65" transform="translate(513.183594 0)"/>
     <use xlink:href="#DejaVuSans-64" transform="translate(574.707031 0)"/>
     <use xlink:href="#DejaVuSans-20" transform="translate(638.183594 0)"/>
     <use xlink:href="#DejaVuSans-74" transform="translate(669.970703 0)"/>
     <use xlink:href="#DejaVuSans-65" transform="translate(709.179688 0)"/>
     <use xlink:href="#DejaVuSans-73" transform="translate(770.703125 0)"/>
     <use xlink:href="#DejaVuSans-74" transform="translate(822.802734 0)"/>
     <use xlink:href="#DejaVuSans-69" transform="translate(862.011719 0)"/>
     <use xlink:href="#DejaVuSans-6e" transform="translate(889.794922 0)"/>
     <use xlink:href="#DejaVuSans-67" transform="translate(953.173828 0)"/>
    </g>
   </g>
   <g id="text_3">
    <!-- Find footguns fast -->
    <g style="fill: #111827" transform="translate(226.179086 15.368853) scale(0.105 -0.105)">
     <use xlink:href="#DejaVuSans-46"/>
     <use xlink:href="#DejaVuSans-69" transform="translate(50.269531 0)"/>
     <use xlink:href="#DejaVuSans-6e" transform="translate(78.052734 0)"/>
     <use xlink:href="#DejaVuSans-64" transform="translate(141.431641 0)"/>
     <use xlink:href="#DejaVuSans-20" transform="translate(204.908203 0)"/>
     <use xlink:href="#DejaVuSans-66" transform="translate(236.695312 0)"/>
     <use xlink:href="#DejaVuSans-6f" transform="translate(271.900391 0)"/>
     <use xlink:href="#DejaVuSans-6f" transform="translate(333.082031 0)"/>
     <use xlink:href="#DejaVuSans-74" transform="translate(394.263672 0)"/>
     <use xlink:href="#DejaVuSans-67" transform="translate(433.472656 0)"/>
     <use xlink:href="#DejaVuSans-75" transform="translate(496.949219 0)"/>
     <use xlink:href="#DejaVuSans-6e" transform="translate(560.328125 0)"/>
     <use xlink:href="#DejaVuSans-73" transform="translate(623.707031 0)"/>
     <use xlink:href="#DejaVuSans-20" transform="translate(675.806641 0)"/>
     <use xlink:href="#DejaVuSans-66" transform="translate(707.59375 0)"/>
     <use xlink:href="#DejaVuSans-61" transform="translate(742.798828 0)"/>
     <use xlink:href="#DejaVuSans-73" transform="translate(804.078125 0)"/>
     <use xlink:href="#DejaVuSans-74" transform="translate(856.177734 0)"/>
    </g>
   </g>
   <g id="text_4">
    <!-- Systematic exploration -->
    <g style="fill: #111827" transform="translate(86.327008 105.754595) scale(0.105 -0.105)">
     <defs>
      <path id="DejaVuSans-53" d="M 3425 4513 
L 3425 3897 
Q 3066 4069 2747 4153 
Q 2428 4238 2131 4238 
Q 1616 4238 1336 4038 
Q 1056 3838 1056 3469 
Q 1056 3159 1242 3001 
Q 1428 2844 1947 2747 
L 2328 2669 
Q 3034 2534 3370 2195 
Q 3706 1856 3706 1288 
Q 3706 609 3251 259 
Q 2797 -91 1919 -91 
Q 1588 -91 1214 -16 
Q 841 59 441 206 
L 441 856 
Q 825 641 1194 531 
Q 1563 422 1919 422 
Q 2459 422 2753 634 
Q 3047 847 3047 1241 
Q 3047 1584 2836 1778 
Q 2625 1972 2144 2069 
L 1759 2144 
Q 1053 2284 737 2584 
Q 422 2884 422 3419 
Q 422 4038 858 4394 
Q 1294 4750 2059 4750 
Q 2388 4750 2728 4690 
Q 3069 4631 3425 4513 
z
" transform="scale(0.015625)"/>
      <path id="DejaVuSans-79" d="M 2059 -325 
Q 1816 -950 1584 -1140 
Q 1353 -1331 966 -1331 
L 506 -1331 
L 506 -850 
L 844 -850 
Q 1081 -850 1212 -737 
Q 1344 -625 1503 -206 
L 1606 56 
L 191 3500 
L 800 3500 
L 1894 763 
L 2988 3500 
L 3597 3500 
L 2059 -325 
z
" transform="scale(0.015625)"/>
     </defs>
     <use xlink:href="#DejaVuSans-53"/>
     <use xlink:href="#DejaVuSans-79" transform="translate(63.476562 0)"/>
     <use xlink:href="#DejaVuSans-73" transform="translate(122.65625 0)"/>
     <use xlink:href="#DejaVuSans-74" transform="translate(174.755859 0)"/>
     <use xlink:href="#DejaVuSans-65" transform="translate(213.964844 0)"/>
     <use xlink:href="#DejaVuSans-6d" transform="translate(275.488281 0)"/>
     <use xlink:href="#DejaVuSans-61" transform="translate(372.900391 0)"/>
     <use xlink:href="#DejaVuSans-74" transform="translate(434.179688 0)"/>
     <use xlink:href="#DejaVuSans-69" transform="translate(473.388672 0)"/>
     <use xlink:href="#DejaVuSans-63" transform="translate(501.171875 0)"/>
     <use xlink:href="#DejaVuSans-20" transform="translate(556.152344 0)"/>
     <use xlink:href="#DejaVuSans-65" transform="translate(587.939453 0)"/>
     <use xlink:href="#DejaVuSans-78" transform="translate(647.712891 0)"/>
     <use xlink:href="#DejaVuSans-70" transform="translate(706.892578 0)"/>
     <use xlink:href="#DejaVuSans-6c" transform="translate(770.369141 0)"/>
     <use xlink:href="#DejaVuSans-6f" transform="translate(798.152344 0)"/>
     <use xlink:href="#DejaVuSans-72" transform="translate(859.333984 0)"/>
     <use xlink:href="#DejaVuSans-61" transform="translate(900.447266 0)"/>
     <use xlink:href="#DejaVuSans-74" transform="translate(961.726562 0)"/>
     <use xlink:href="#DejaVuSans-69" transform="translate(1000.935547 0)"/>
     <use xlink:href="#DejaVuSans-6f" transform="translate(1028.71875 0)"/>
     <use xlink:href="#DejaVuSans-6e" transform="translate(1089.900391 0)"/>
    </g>
    <!-- rare cases -->
    <g style="fill: #111827" transform="translate(119.756383 116.554895) scale(0.105 -0.105)">
     <use xlink:href="#DejaVuSans-72"/>
     <use xlink:href="#DejaVuSans-61" transform="translate(41.113281 0)"/>
     <use xlink:href="#DejaVuSans-72" transform="translate(102.392578 0)"/>
     <use xlink:href="#DejaVuSans-65" transform="translate(141.255859 0)"/>
     <use xlink:href="#DejaVuSans-20" transform="translate(202.779297 0)"/>
     <use xlink:href="#DejaVuSans-63" transform="translate(234.566406 0)"/>
     <use xlink:href="#DejaVuSans-61" transform="translate(289.546875 0)"/>
     <use xlink:href="#DejaVuSans-73" transform="translate(350.826172 0)"/>
     <use xlink:href="#DejaVuSans-65" transform="translate(402.925781 0)"/>
     <use xlink:href="#DejaVuSans-73" transform="translate(464.449219 0)"/>
    </g>
   </g>
   <g id="text_5">
    <!-- Find shallow bugs -->
    <g style="fill: #111827" transform="translate(60.467156 223.564595) scale(0.105 -0.105)">
     <defs>
      <path id="DejaVuSans-77" d="M 269 3500 
L 844 3500 
L 1563 769 
L 2278 3500 
L 2956 3500 
L 3675 769 
L 4391 3500 
L 4966 3500 
L 4050 0 
L 3372 0 
L 2619 2869 
L 1863 0 
L 1184 0 
L 269 3500 
z
" transform="scale(0.015625)"/>
     </defs>
     <use xlink:href="#DejaVuSans-46"/>
     <use xlink:href="#DejaVuSans-69" transform="translate(50.269531 0)"/>
     <use xlink:href="#DejaVuSans-6e" transform="translate(78.052734 0)"/>
     <use xlink:href="#DejaVuSans-64" transform="translate(141.431641 0)"/>
     <use xlink:href="#DejaVuSans-20" transform="translate(204.908203 0)"/>
     <use xlink:href="#DejaVuSans-73" transform="translate(236.695312 0)"/>
     <use xlink:href="#DejaVuSans-68" transform="translate(288.794922 0)"/>
     <use xlink:href="#DejaVuSans-61" transform="translate(352.173828 0)"/>
     <use xlink:href="#DejaVuSans-6c" transform="translate(413.453125 0)"/>
     <use xlink:href="#DejaVuSans-6c" transform="translate(441.236328 0)"/>
     <use xlink:href="#DejaVuSans-6f" transform="translate(469.019531 0)"/>
     <use xlink:href="#DejaVuSans-77" transform="translate(530.201172 0)"/>
     <use xlink:href="#DejaVuSans-20" transform="translate(611.988281 0)"/>
     <use xlink:href="#DejaVuSans-62" transform="translate(643.775391 0)"/>
     <use xlink:href="#DejaVuSans-75" transform="translate(707.251953 0)"/>
     <use xlink:href="#DejaVuSans-67" transform="translate(770.630859 0)"/>
     <use xlink:href="#DejaVuSans-73" transform="translate(834.107422 0)"/>
    </g>
    <!-- Diff testing -->
    <g style="fill: #111827" transform="translate(77.925867 234.364895) scale(0.105 -0.105)">
     <defs>
      <path id="DejaVuSans-44" d="M 1259 4147 
L 1259 519 
L 2022 519 
Q 2988 519 3436 956 
Q 3884 1394 3884 2338 
Q 3884 3275 3436 3711 
Q 2988 4147 2022 4147 
L 1259 4147 
z
M 628 4666 
L 1925 4666 
Q 3281 4666 3915 4102 
Q 4550 3538 4550 2338 
Q 4550 1131 3912 565 
Q 3275 0 1925 0 
L 628 0 
L 628 4666 
z
" transform="scale(0.015625)"/>
     </defs>
     <use xlink:href="#DejaVuSans-44"/>
     <use xlink:href="#DejaVuSans-69" transform="translate(77.001953 0)"/>
     <use xlink:href="#DejaVuSans-66" transform="translate(104.785156 0)"/>
     <use xlink:href="#DejaVuSans-66" transform="translate(139.990234 0)"/>
     <use xlink:href="#DejaVuSans-20" transform="translate(175.195312 0)"/>
     <use xlink:href="#DejaVuSans-74" transform="translate(206.982422 0)"/>
     <use xlink:href="#DejaVuSans-65" transform="translate(246.191406 0)"/>
     <use xlink:href="#DejaVuSans-73" transform="translate(307.714844 0)"/>
     <use xlink:href="#DejaVuSans-74" transform="translate(359.814453 0)"/>
     <use xlink:href="#DejaVuSans-69" transform="translate(399.023438 0)"/>
     <use xlink:href="#DejaVuSans-6e" transform="translate(426.806641 0)"/>
     <use xlink:href="#DejaVuSans-67" transform="translate(490.185547 0)"/>
    </g>
   </g>
   <g id="text_6">
    <!-- Interactive exploration -->
    <g style="fill: #111827" transform="translate(84.843495 342.760595) scale(0.105 -0.105)">
     <defs>
      <path id="DejaVuSans-49" d="M 628 4666 
L 1259 4666 
L 1259 0 
L 628 0 
L 628 4666 
z
" transform="scale(0.015625)"/>
     </defs>
     <use xlink:href="#DejaVuSans-49"/>
     <use xlink:href="#DejaVuSans-6e" transform="translate(29.492188 0)"/>
     <use xlink:href="#DejaVuSans-74" transform="translate(92.871094 0)"/>
     <use xlink:href="#DejaVuSans-65" transform="translate(132.080078 0)"/>
     <use xlink:href="#DejaVuSans-72" transform="translate(193.603516 0)"/>
     <use xlink:href="#DejaVuSans-61" transform="translate(234.716797 0)"/>
     <use xlink:href="#DejaVuSans-63" transform="translate(295.996094 0)"/>
     <use xlink:href="#DejaVuSans-74" transform="translate(350.976562 0)"/>
     <use xlink:href="#DejaVuSans-69" transform="translate(390.185547 0)"/>
     <use xlink:href="#DejaVuSans-76" transform="translate(417.96875 0)"/>
     <use xlink:href="#DejaVuSans-65" transform="translate(477.148438 0)"/>
     <use xlink:href="#DejaVuSans-20" transform="translate(538.671875 0)"/>
     <use xlink:href="#DejaVuSans-65" transform="translate(570.458984 0)"/>
     <use xlink:href="#DejaVuSans-78" transform="translate(630.232422 0)"/>
     <use xlink:href="#DejaVuSans-70" transform="translate(689.412109 0)"/>
     <use xlink:href="#DejaVuSans-6c" transform="translate(752.888672 0)"/>
     <use xlink:href="#DejaVuSans-6f" transform="translate(780.671875 0)"/>
     <use xlink:href="#DejaVuSans-72" transform="translate(841.853516 0)"/>
     <use xlink:href="#DejaVuSans-61" transform="translate(882.966797 0)"/>
     <use xlink:href="#DejaVuSans-74" transform="translate(944.246094 0)"/>
     <use xlink:href="#DejaVuSans-69" transform="translate(983.455078 0)"/>
     <use xlink:href="#DejaVuSans-6f" transform="translate(1011.238281 0)"/>
     <use xlink:href="#DejaVuSans-6e" transform="translate(1072.419922 0)"/>
    </g>
    <!-- IPython, pyunit -->
    <g style="fill: #111827" transform="translate(104.77955 353.560895) scale(0.105 -0.105)">
     <defs>
      <path id="DejaVuSans-50" d="M 1259 4147 
L 1259 2394 
L 2053 2394 
Q 2494 2394 2734 2622 
Q 2975 2850 2975 3272 
Q 2975 3691 2734 3919 
Q 2494 4147 2053 4147 
L 1259 4147 
z
M 628 4666 
L 2053 4666 
Q 2838 4666 3239 4311 
Q 3641 3956 3641 3272 
Q 3641 2581 3239 2228 
Q 2838 1875 2053 1875 
L 1259 1875 
L 1259 0 
L 628 0 
L 628 4666 
z
" transform="scale(0.015625)"/>
      <path id="DejaVuSans-2c" d="M 750 794 
L 1409 794 
L 1409 256 
L 897 -744 
L 494 -744 
L 750 256 
L 750 794 
z
" transform="scale(0.015625)"/>
     </defs>
     <use xlink:href="#DejaVuSans-49"/>
     <use xlink:href="#DejaVuSans-50" transform="translate(29.492188 0)"/>
     <use xlink:href="#DejaVuSans-79" transform="translate(89.794922 0)"/>
     <use xlink:href="#DejaVuSans-74" transform="translate(148.974609 0)"/>
     <use xlink:href="#DejaVuSans-68" transform="translate(188.183594 0)"/>
     <use xlink:href="#DejaVuSans-6f" transform="translate(251.5625 0)"/>
     <use xlink:href="#DejaVuSans-6e" transform="translate(312.744141 0)"/>
     <use xlink:href="#DejaVuSans-2c" transform="translate(376.123047 0)"/>
     <use xlink:href="#DejaVuSans-20" transform="translate(407.910156 0)"/>
     <use xlink:href="#DejaVuSans-70" transform="translate(439.697266 0)"/>
     <use xlink:href="#DejaVuSans-79" transform="translate(503.173828 0)"/>
     <use xlink:href="#DejaVuSans-75" transform="translate(562.353516 0)"/>
     <use xlink:href="#DejaVuSans-6e" transform="translate(625.732422 0)"/>
     <use xlink:href="#DejaVuSans-69" transform="translate(689.111328 0)"/>
     <use xlink:href="#DejaVuSans-74" transform="translate(716.894531 0)"/>
    </g>
   </g>
   <g id="text_7">
    <!-- Machine-checked proofs -->
    <g style="fill: #111827" transform="translate(210.46908 434.555658) scale(0.105 -0.105)">
     <defs>
      <path id="DejaVuSans-6b" d="M 581 4863 
L 1159 4863 
L 1159 1991 
L 2875 3500 
L 3609 3500 
L 1753 1863 
L 3688 0 
L 2938 0 
L 1159 1709 
L 1159 0 
L 581 0 
L 581 4863 
z
" transform="scale(0.015625)"/>
     </defs>
     <use xlink:href="#DejaVuSans-4d"/>
     <use xlink:href="#DejaVuSans-61" transform="translate(86.279297 0)"/>
     <use xlink:href="#DejaVuSans-63" transform="translate(147.558594 0)"/>
     <use xlink:href="#DejaVuSans-68" transform="translate(202.539062 0)"/>
     <use xlink:href="#DejaVuSans-69" transform="translate(265.917969 0)"/>
     <use xlink:href="#DejaVuSans-6e" transform="translate(293.701172 0)"/>
     <use xlink:href="#DejaVuSans-65" transform="translate(357.080078 0)"/>
     <use xlink:href="#DejaVuSans-2d" transform="translate(418.603516 0)"/>
     <use xlink:href="#DejaVuSans-63" transform="translate(454.6875 0)"/>
     <use xlink:href="#DejaVuSans-68" transform="translate(509.667969 0)"/>
     <use xlink:href="#DejaVuSans-65" transform="translate(573.046875 0)"/>
     <use xlink:href="#DejaVuSans-63" transform="translate(634.570312 0)"/>
     <use xlink:href="#DejaVuSans-6b" transform="translate(689.550781 0)"/>
     <use xlink:href="#DejaVuSans-65" transform="translate(743.835938 0)"/>
     <use xlink:href="#DejaVuSans-64" transform="translate(805.359375 0)"/>
     <use xlink:href="#DejaVuSans-20" transform="translate(868.835938 0)"/>
     <use xlink:href="#DejaVuSans-70" transform="translate(900.623047 0)"/>
     <use xlink:href="#DejaVuSans-72" transform="translate(964.099609 0)"/>
     <use xlink:href="#DejaVuSans-6f" transform="translate(1002.962891 0)"/>
     <use xlink:href="#DejaVuSans-6f" transform="translate(1064.144531 0)"/>
     <use xlink:href="#DejaVuSans-66" transform="translate(1125.326172 0)"/>
     <use xlink:href="#DejaVuSans-73" transform="translate(1160.53125 0)"/>
    </g>
    <!-- with AI tools and Lean 4 -->
    <g style="fill: #111827" transform="translate(211.011307 445.355958) scale(0.105 -0.105)">
     <defs>
      <path id="DejaVuSans-41" d="M 2188 4044 
L 1331 1722 
L 3047 1722 
L 2188 4044 
z
M 1831 4666 
L 2547 4666 
L 4325 0 
L 3669 0 
L 3244 1197 
L 1141 1197 
L 716 0 
L 50 0 
L 1831 4666 
z
" transform="scale(0.015625)"/>
      <path id="DejaVuSans-4c" d="M 628 4666 
L 1259 4666 
L 1259 531 
L 3531 531 
L 3531 0 
L 628 0 
L 628 4666 
z
" transform="scale(0.015625)"/>
      <path id="DejaVuSans-34" d="M 2419 4116 
L 825 1625 
L 2419 1625 
L 2419 4116 
z
M 2253 4666 
L 3047 4666 
L 3047 1625 
L 3713 1625 
L 3713 1100 
L 3047 1100 
L 3047 0 
L 2419 0 
L 2419 1100 
L 313 1100 
L 313 1709 
L 2253 4666 
z
" transform="scale(0.015625)"/>
     </defs>
     <use xlink:href="#DejaVuSans-77"/>
     <use xlink:href="#DejaVuSans-69" transform="translate(81.787109 0)"/>
     <use xlink:href="#DejaVuSans-74" transform="translate(109.570312 0)"/>
     <use xlink:href="#DejaVuSans-68" transform="translate(148.779297 0)"/>
     <use xlink:href="#DejaVuSans-20" transform="translate(212.158203 0)"/>
     <use xlink:href="#DejaVuSans-41" transform="translate(243.945312 0)"/>
     <use xlink:href="#DejaVuSans-49" transform="translate(312.353516 0)"/>
     <use xlink:href="#DejaVuSans-20" transform="translate(341.845703 0)"/>
     <use xlink:href="#DejaVuSans-74" transform="translate(373.632812 0)"/>
     <use xlink:href="#DejaVuSans-6f" transform="translate(412.841797 0)"/>
     <use xlink:href="#DejaVuSans-6f" transform="translate(474.023438 0)"/>
     <use xlink:href="#DejaVuSans-6c" transform="translate(535.205078 0)"/>
     <use xlink:href="#DejaVuSans-73" transform="translate(562.988281 0)"/>
     <use xlink:href="#DejaVuSans-20" transform="translate(615.087891 0)"/>
     <use xlink:href="#DejaVuSans-61" transform="translate(646.875 0)"/>
     <use xlink:href="#DejaVuSans-6e" transform="translate(708.154297 0)"/>
     <use xlink:href="#DejaVuSans-64" transform="translate(771.533203 0)"/>
     <use xlink:href="#DejaVuSans-20" transform="translate(835.009766 0)"/>
     <use xlink:href="#DejaVuSans-4c" transform="translate(866.796875 0)"/>
     <use xlink:href="#DejaVuSans-65" transform="translate(920.759766 0)"/>
     <use xlink:href="#DejaVuSans-61" transform="translate(982.283203 0)"/>
     <use xlink:href="#DejaVuSans-6e" transform="translate(1043.5625 0)"/>
     <use xlink:href="#DejaVuSans-20" transform="translate(1106.941406 0)"/>
     <use xlink:href="#DejaVuSans-34" transform="translate(1138.728516 0)"/>
    </g>
   </g>
   <g id="patch_10">
    <path d="M 366.80216 344.066266 
C 375.035309 361.72231 386.320648 377.0776 398.172713 386.75031 
C 410.024778 396.42302 421.4759 399.623417 430.004103 395.646651 
C 438.532305 391.669885 443.441298 380.840641 443.649933 365.543934 
C 443.858567 350.247227 439.34981 331.731966 431.116661 314.075922 
C 422.883512 296.419877 411.598173 281.064588 399.746108 271.391878 
C 387.894043 261.719168 376.442921 258.51877 367.914718 262.495536 
C 359.386516 266.472303 354.477523 277.301547 354.268888 292.598254 
C 354.060254 307.89496 358.569012 326.410222 366.80216 344.066266 
z
" clip-path="url(#p5b0b9923d8)" style="fill: #4b0082; opacity: 0.82; stroke: #374151; stroke-width: 1.4; stroke-linejoin: miter"/>
   </g>
   <g id="text_8">
    <!-- Machine-checked proofs -->
    <g style="fill: #111827" transform="translate(384.497866 432.084265) scale(0.105 -0.105)">
     <use xlink:href="#DejaVuSans-4d"/>
     <use xlink:href="#DejaVuSans-61" transform="translate(86.279297 0)"/>
     <use xlink:href="#DejaVuSans-63" transform="translate(147.558594 0)"/>
     <use xlink:href="#DejaVuSans-68" transform="translate(202.539062 0)"/>
     <use xlink:href="#DejaVuSans-69" transform="translate(265.917969 0)"/>
     <use xlink:href="#DejaVuSans-6e" transform="translate(293.701172 0)"/>
     <use xlink:href="#DejaVuSans-65" transform="translate(357.080078 0)"/>
     <use xlink:href="#DejaVuSans-2d" transform="translate(418.603516 0)"/>
     <use xlink:href="#DejaVuSans-63" transform="translate(454.6875 0)"/>
     <use xlink:href="#DejaVuSans-68" transform="translate(509.667969 0)"/>
     <use xlink:href="#DejaVuSans-65" transform="translate(573.046875 0)"/>
     <use xlink:href="#DejaVuSans-63" transform="translate(634.570312 0)"/>
     <use xlink:href="#DejaVuSans-6b" transform="translate(689.550781 0)"/>
     <use xlink:href="#DejaVuSans-65" transform="translate(743.835938 0)"/>
     <use xlink:href="#DejaVuSans-64" transform="translate(805.359375 0)"/>
     <use xlink:href="#DejaVuSans-20" transform="translate(868.835938 0)"/>
     <use xlink:href="#DejaVuSans-70" transform="translate(900.623047 0)"/>
     <use xlink:href="#DejaVuSans-72" transform="translate(964.099609 0)"/>
     <use xlink:href="#DejaVuSans-6f" transform="translate(1002.962891 0)"/>
     <use xlink:href="#DejaVuSans-6f" transform="translate(1064.144531 0)"/>
     <use xlink:href="#DejaVuSans-66" transform="translate(1125.326172 0)"/>
     <use xlink:href="#DejaVuSans-73" transform="translate(1160.53125 0)"/>
    </g>
    <!-- with AI tools and TLAPM -->
    <g style="fill: #111827" transform="translate(385.120483 442.884565) scale(0.105 -0.105)">
     <defs>
      <path id="DejaVuSans-54" d="M -19 4666 
L 3928 4666 
L 3928 4134 
L 2272 4134 
L 2272 0 
L 1638 0 
L 1638 4134 
L -19 4134 
L -19 4666 
z
" transform="scale(0.015625)"/>
     </defs>
     <use xlink:href="#DejaVuSans-77"/>
     <use xlink:href="#DejaVuSans-69" transform="translate(81.787109 0)"/>
     <use xlink:href="#DejaVuSans-74" transform="translate(109.570312 0)"/>
     <use xlink:href="#DejaVuSans-68" transform="translate(148.779297 0)"/>
     <use xlink:href="#DejaVuSans-20" transform="translate(212.158203 0)"/>
     <use xlink:href="#DejaVuSans-41" transform="translate(243.945312 0)"/>
     <use xlink:href="#DejaVuSans-49" transform="translate(312.353516 0)"/>
     <use xlink:href="#DejaVuSans-20" transform="translate(341.845703 0)"/>
     <use xlink:href="#DejaVuSans-74" transform="translate(373.632812 0)"/>
     <use xlink:href="#DejaVuSans-6f" transform="translate(412.841797 0)"/>
     <use xlink:href="#DejaVuSans-6f" transform="translate(474.023438 0)"/>
     <use xlink:href="#DejaVuSans-6c" transform="translate(535.205078 0)"/>
     <use xlink:href="#DejaVuSans-73" transform="translate(562.988281 0)"/>
     <use xlink:href="#DejaVuSans-20" transform="translate(615.087891 0)"/>
     <use xlink:href="#DejaVuSans-61" transform="translate(646.875 0)"/>
     <use xlink:href="#DejaVuSans-6e" transform="translate(708.154297 0)"/>
     <use xlink:href="#DejaVuSans-64" transform="translate(771.533203 0)"/>
     <use xlink:href="#DejaVuSans-20" transform="translate(835.009766 0)"/>
     <use xlink:href="#DejaVuSans-54" transform="translate(866.796875 0)"/>
     <use xlink:href="#DejaVuSans-4c" transform="translate(927.880859 0)"/>
     <use xlink:href="#DejaVuSans-41" transform="translate(985.84375 0)"/>
     <use xlink:href="#DejaVuSans-50" transform="translate(1054.251953 0)"/>
     <use xlink:href="#DejaVuSans-4d" transform="translate(1114.554688 0)"/>
    </g>
   </g>
   <g id="text_9">
    <!-- Symbolic model checking -->
    <g style="fill: #111827" transform="translate(492.704377 344.146595) scale(0.105 -0.105)">
     <use xlink:href="#DejaVuSans-53"/>
     <use xlink:href="#DejaVuSans-79" transform="translate(63.476562 0)"/>
     <use xlink:href="#DejaVuSans-6d" transform="translate(122.65625 0)"/>
     <use xlink:href="#DejaVuSans-62" transform="translate(220.068359 0)"/>
     <use xlink:href="#DejaVuSans-6f" transform="translate(283.544922 0)"/>
     <use xlink:href="#DejaVuSans-6c" transform="translate(344.726562 0)"/>
     <use xlink:href="#DejaVuSans-69" transform="translate(372.509766 0)"/>
     <use xlink:href="#DejaVuSans-63" transform="translate(400.292969 0)"/>
     <use xlink:href="#DejaVuSans-20" transform="translate(455.273438 0)"/>
     <use xlink:href="#DejaVuSans-6d" transform="translate(487.060547 0)"/>
     <use xlink:href="#DejaVuSans-6f" transform="translate(584.472656 0)"/>
     <use xlink:href="#DejaVuSans-64" transform="translate(645.654297 0)"/>
     <use xlink:href="#DejaVuSans-65" transform="translate(709.130859 0)"/>
     <use xlink:href="#DejaVuSans-6c" transform="translate(770.654297 0)"/>
     <use xlink:href="#DejaVuSans-20" transform="translate(798.4375 0)"/>
     <use xlink:href="#DejaVuSans-63" transform="translate(830.224609 0)"/>
     <use xlink:href="#DejaVuSans-68" transform="translate(885.205078 0)"/>
     <use xlink:href="#DejaVuSans-65" transform="translate(948.583984 0)"/>
     <use xlink:href="#DejaVuSans-63" transform="translate(1010.107422 0)"/>
     <use xlink:href="#DejaVuSans-6b" transform="translate(1065.087891 0)"/>
     <use xlink:href="#DejaVuSans-69" transform="translate(1122.998047 0)"/>
     <use xlink:href="#DejaVuSans-6e" transform="translate(1150.78125 0)"/>
     <use xlink:href="#DejaVuSans-67" transform="translate(1214.160156 0)"/>
    </g>
    <!-- Bounded inductive invariants -->
    <g style="fill: #111827" transform="translate(482.828635 354.946895) scale(0.105 -0.105)">
     <defs>
      <path id="DejaVuSans-42" d="M 1259 2228 
L 1259 519 
L 2272 519 
Q 2781 519 3026 730 
Q 3272 941 3272 1375 
Q 3272 1813 3026 2020 
Q 2781 2228 2272 2228 
L 1259 2228 
z
M 1259 4147 
L 1259 2741 
L 2194 2741 
Q 2656 2741 2882 2914 
Q 3109 3088 3109 3444 
Q 3109 3797 2882 3972 
Q 2656 4147 2194 4147 
L 1259 4147 
z
M 628 4666 
L 2241 4666 
Q 2963 4666 3353 4366 
Q 3744 4066 3744 3513 
Q 3744 3084 3544 2831 
Q 3344 2578 2956 2516 
Q 3422 2416 3680 2098 
Q 3938 1781 3938 1306 
Q 3938 681 3513 340 
Q 3088 0 2303 0 
L 628 0 
L 628 4666 
z
" transform="scale(0.015625)"/>
     </defs>
     <use xlink:href="#DejaVuSans-42"/>
     <use xlink:href="#DejaVuSans-6f" transform="translate(68.603516 0)"/>
     <use xlink:href="#DejaVuSans-75" transform="translate(129.785156 0)"/>
     <use xlink:href="#DejaVuSans-6e" transform="translate(193.164062 0)"/>
     <use xlink:href="#DejaVuSans-64" transform="translate(256.542969 0)"/>
     <use xlink:href="#DejaVuSans-65" transform="translate(320.019531 0)"/>
     <use xlink:href="#DejaVuSans-64" transform="translate(381.542969 0)"/>
     <use xlink:href="#DejaVuSans-20" transform="translate(445.019531 0)"/>
     <use xlink:href="#DejaVuSans-69" transform="translate(476.806641 0)"/>
     <use xlink:href="#DejaVuSans-6e" transform="translate(504.589844 0)"/>
     <use xlink:href="#DejaVuSans-64" transform="translate(567.96875 0)"/>
     <use xlink:href="#DejaVuSans-75" transform="translate(631.445312 0)"/>
     <use xlink:href="#DejaVuSans-63" transform="translate(694.824219 0)"/>
     <use xlink:href="#DejaVuSans-74" transform="translate(749.804688 0)"/>
     <use xlink:href="#DejaVuSans-69" transform="translate(789.013672 0)"/>
     <use xlink:href="#DejaVuSans-76" transform="translate(816.796875 0)"/>
     <use xlink:href="#DejaVuSans-65" transform="translate(875.976562 0)"/>
     <use xlink:href="#DejaVuSans-20" transform="translate(937.5 0)"/>
     <use xlink:href="#DejaVuSans-69" transform="translate(969.287109 0)"/>
     <use xlink:href="#DejaVuSans-6e" transform="translate(997.070312 0)"/>
     <use xlink:href="#DejaVuSans-76" transform="translate(1060.449219 0)"/>
     <use xlink:href="#DejaVuSans-61" transform="translate(1119.628906 0)"/>
     <use xlink:href="#DejaVuSans-72" transform="translate(1180.908203 0)"/>
     <use xlink:href="#DejaVuSans-69" transform="translate(1222.021484 0)"/>
     <use xlink:href="#DejaVuSans-61" transform="translate(1249.804688 0)"/>
     <use xlink:href="#DejaVuSans-6e" transform="translate(1311.083984 0)"/>
     <use xlink:href="#DejaVuSans-74" transform="translate(1374.462891 0)"/>
     <use xlink:href="#DejaVuSans-73" transform="translate(1413.671875 0)"/>
    </g>
   </g>
   <g id="text_10">
    <!-- Battle-tested -->
    <g style="fill: #111827" transform="translate(566.244445 218.164445) scale(0.105 -0.105)">
     <use xlink:href="#DejaVuSans-42"/>
     <use xlink:href="#DejaVuSans-61" transform="translate(68.603516 0)"/>
     <use xlink:href="#DejaVuSans-74" transform="translate(129.882812 0)"/>
     <use xlink:href="#DejaVuSans-74" transform="translate(169.091797 0)"/>
     <use xlink:href="#DejaVuSans-6c" transform="translate(208.300781 0)"/>
     <use xlink:href="#DejaVuSans-65" transform="translate(236.083984 0)"/>
     <use xlink:href="#DejaVuSans-2d" transform="translate(297.607422 0)"/>
     <use xlink:href="#DejaVuSans-74" transform="translate(333.691406 0)"/>
     <use xlink:href="#DejaVuSans-65" transform="translate(372.900391 0)"/>
     <use xlink:href="#DejaVuSans-73" transform="translate(434.423828 0)"/>
     <use xlink:href="#DejaVuSans-74" transform="translate(486.523438 0)"/>
     <use xlink:href="#DejaVuSans-65" transform="translate(525.732422 0)"/>
     <use xlink:href="#DejaVuSans-64" transform="translate(587.255859 0)"/>
    </g>
    <!-- model checking, -->
    <g style="fill: #111827" transform="translate(557.233313 228.964745) scale(0.105 -0.105)">
     <use xlink:href="#DejaVuSans-6d"/>
     <use xlink:href="#DejaVuSans-6f" transform="translate(97.412109 0)"/>
     <use xlink:href="#DejaVuSans-64" transform="translate(158.59375 0)"/>
     <use xlink:href="#DejaVuSans-65" transform="translate(222.070312 0)"/>
     <use xlink:href="#DejaVuSans-6c" transform="translate(283.59375 0)"/>
     <use xlink:href="#DejaVuSans-20" transform="translate(311.376953 0)"/>
     <use xlink:href="#DejaVuSans-63" transform="translate(343.164062 0)"/>
     <use xlink:href="#DejaVuSans-68" transform="translate(398.144531 0)"/>
     <use xlink:href="#DejaVuSans-65" transform="translate(461.523438 0)"/>
     <use xlink:href="#DejaVuSans-63" transform="translate(523.046875 0)"/>
     <use xlink:href="#DejaVuSans-6b" transform="translate(578.027344 0)"/>
     <use xlink:href="#DejaVuSans-69" transform="translate(635.9375 0)"/>
     <use xlink:href="#DejaVuSans-6e" transform="translate(663.720703 0)"/>
     <use xlink:href="#DejaVuSans-67" transform="translate(727.099609 0)"/>
     <use xlink:href="#DejaVuSans-2c" transform="translate(790.576172 0)"/>
    </g>
    <!-- temporal properties -->
    <g style="fill: #111827" transform="translate(548.168859 239.765045) scale(0.105 -0.105)">
     <use xlink:href="#DejaVuSans-74"/>
     <use xlink:href="#DejaVuSans-65" transform="translate(39.208984 0)"/>
     <use xlink:href="#DejaVuSans-6d" transform="translate(100.732422 0)"/>
     <use xlink:href="#DejaVuSans-70" transform="translate(198.144531 0)"/>
     <use xlink:href="#DejaVuSans-6f" transform="translate(261.621094 0)"/>
     <use xlink:href="#DejaVuSans-72" transform="translate(322.802734 0)"/>
     <use xlink:href="#DejaVuSans-61" transform="translate(363.916016 0)"/>
     <use xlink:href="#DejaVuSans-6c" transform="translate(425.195312 0)"/>
     <use xlink:href="#DejaVuSans-20" transform="translate(452.978516 0)"/>
     <use xlink:href="#DejaVuSans-70" transform="translate(484.765625 0)"/>
     <use xlink:href="#DejaVuSans-72" transform="translate(548.242188 0)"/>
     <use xlink:href="#DejaVuSans-6f" transform="translate(587.105469 0)"/>
     <use xlink:href="#DejaVuSans-70" transform="translate(648.287109 0)"/>
     <use xlink:href="#DejaVuSans-65" transform="translate(711.763672 0)"/>
     <use xlink:href="#DejaVuSans-72" transform="translate(773.287109 0)"/>
     <use xlink:href="#DejaVuSans-74" transform="translate(814.400391 0)"/>
     <use xlink:href="#DejaVuSans-69" transform="translate(853.609375 0)"/>
     <use xlink:href="#DejaVuSans-65" transform="translate(881.392578 0)"/>
     <use xlink:href="#DejaVuSans-73" transform="translate(942.916016 0)"/>
    </g>
   </g>
   <g id="patch_11">
    <path d="M 431.612719 313.621368 
C 448.484011 323.362013 466.535852 329.467325 481.792534 330.59268 
C 497.049216 331.718035 508.265098 327.771553 512.970013 319.622401 
C 517.674928 311.473249 515.484741 299.786769 506.881814 287.136772 
C 498.278886 274.486776 483.965611 261.906079 467.094319 252.165434 
C 450.223028 242.42479 432.171187 236.319478 416.914505 235.194122 
C 401.657823 234.068767 390.44194 238.015249 385.737025 246.164401 
C 381.03211 254.313553 383.222298 266.000033 391.825225 278.65003 
C 400.428152 291.300027 414.741428 303.880724 431.612719 313.621368 
z
" clip-path="url(#p5b0b9923d8)" style="fill: #9400d3; opacity: 0.82; stroke: #374151; stroke-width: 1.4; stroke-linejoin: miter"/>
   </g>
   <g id="patch_12">
    <path d="M 464.58 261.549001 
C 484.061289 261.549001 502.747298 257.810436 516.52265 251.156681 
C 530.298002 244.502926 538.038 235.477232 538.038 226.067401 
C 538.038 216.657571 530.298002 207.631876 516.52265 200.978121 
C 502.747298 194.324366 484.061289 190.585801 464.58 190.585801 
C 445.098711 190.585801 426.412702 194.324366 412.63735 200.978121 
C 398.861998 207.631876 391.122 216.657571 391.122 226.067401 
C 391.122 235.477232 398.861998 244.502926 412.63735 251.156681 
C 426.412702 257.810436 445.098711 261.549001 464.58 261.549001 
z
" clip-path="url(#p5b0b9923d8)" style="fill: #ff00ff; opacity: 0.82; stroke: #374151; stroke-width: 1.4; stroke-linejoin: miter"/>
   </g>
   <g id="text_11">
    <!-- model -->
    <g style="fill: #ffffff" transform="translate(428.557894 160.209451) scale(0.12 -0.12)">
     <defs>
      <path id="DejaVuSans-Bold-6d" d="M 3781 2919 
Q 3994 3244 4286 3414 
Q 4578 3584 4928 3584 
Q 5531 3584 5847 3212 
Q 6163 2841 6163 2131 
L 6163 0 
L 5038 0 
L 5038 1825 
Q 5041 1866 5042 1909 
Q 5044 1953 5044 2034 
Q 5044 2406 4934 2573 
Q 4825 2741 4581 2741 
Q 4263 2741 4089 2478 
Q 3916 2216 3909 1719 
L 3909 0 
L 2784 0 
L 2784 1825 
Q 2784 2406 2684 2573 
Q 2584 2741 2328 2741 
Q 2006 2741 1831 2477 
Q 1656 2213 1656 1722 
L 1656 0 
L 531 0 
L 531 3500 
L 1656 3500 
L 1656 2988 
Q 1863 3284 2130 3434 
Q 2397 3584 2719 3584 
Q 3081 3584 3359 3409 
Q 3638 3234 3781 2919 
z
" transform="scale(0.015625)"/>
      <path id="DejaVuSans-Bold-6f" d="M 2203 2784 
Q 1831 2784 1636 2517 
Q 1441 2250 1441 1747 
Q 1441 1244 1636 976 
Q 1831 709 2203 709 
Q 2569 709 2762 976 
Q 2956 1244 2956 1747 
Q 2956 2250 2762 2517 
Q 2569 2784 2203 2784 
z
M 2203 3584 
Q 3106 3584 3614 3096 
Q 4122 2609 4122 1747 
Q 4122 884 3614 396 
Q 3106 -91 2203 -91 
Q 1297 -91 786 396 
Q 275 884 275 1747 
Q 275 2609 786 3096 
Q 1297 3584 2203 3584 
z
" transform="scale(0.015625)"/>
      <path id="DejaVuSans-Bold-64" d="M 2919 2988 
L 2919 4863 
L 4044 4863 
L 4044 0 
L 2919 0 
L 2919 506 
Q 2688 197 2409 53 
Q 2131 -91 1766 -91 
Q 1119 -91 703 423 
Q 288 938 288 1747 
Q 288 2556 703 3070 
Q 1119 3584 1766 3584 
Q 2128 3584 2408 3439 
Q 2688 3294 2919 2988 
z
M 2181 722 
Q 2541 722 2730 984 
Q 2919 1247 2919 1747 
Q 2919 2247 2730 2509 
Q 2541 2772 2181 2772 
Q 1825 2772 1636 2509 
Q 1447 2247 1447 1747 
Q 1447 1247 1636 984 
Q 1825 722 2181 722 
z
" transform="scale(0.015625)"/>
      <path id="DejaVuSans-Bold-65" d="M 4031 1759 
L 4031 1441 
L 1416 1441 
Q 1456 1047 1700 850 
Q 1944 653 2381 653 
Q 2734 653 3104 758 
Q 3475 863 3866 1075 
L 3866 213 
Q 3469 63 3072 -14 
Q 2675 -91 2278 -91 
Q 1328 -91 801 392 
Q 275 875 275 1747 
Q 275 2603 792 3093 
Q 1309 3584 2216 3584 
Q 3041 3584 3536 3087 
Q 4031 2591 4031 1759 
z
M 2881 2131 
Q 2881 2450 2695 2645 
Q 2509 2841 2209 2841 
Q 1884 2841 1681 2658 
Q 1478 2475 1428 2131 
L 2881 2131 
z
" transform="scale(0.015625)"/>
      <path id="DejaVuSans-Bold-6c" d="M 538 4863 
L 1656 4863 
L 1656 0 
L 538 0 
L 538 4863 
z
" transform="scale(0.015625)"/>
     </defs>
     <use xlink:href="#DejaVuSans-Bold-6d"/>
     <use xlink:href="#DejaVuSans-Bold-6f" transform="translate(104.199219 0)"/>
     <use xlink:href="#DejaVuSans-Bold-64" transform="translate(172.900391 0)"/>
     <use xlink:href="#DejaVuSans-Bold-65" transform="translate(244.482422 0)"/>
     <use xlink:href="#DejaVuSans-Bold-6c" transform="translate(312.304688 0)"/>
    </g>
    <!-- checker -->
    <g style="fill: #ffffff" transform="translate(423.037894 172.552651) scale(0.12 -0.12)">
     <defs>
      <path id="DejaVuSans-Bold-63" d="M 3366 3391 
L 3366 2478 
Q 3138 2634 2908 2709 
Q 2678 2784 2431 2784 
Q 1963 2784 1702 2511 
Q 1441 2238 1441 1747 
Q 1441 1256 1702 982 
Q 1963 709 2431 709 
Q 2694 709 2930 787 
Q 3166 866 3366 1019 
L 3366 103 
Q 3103 6 2833 -42 
Q 2563 -91 2291 -91 
Q 1344 -91 809 395 
Q 275 881 275 1747 
Q 275 2613 809 3098 
Q 1344 3584 2291 3584 
Q 2566 3584 2833 3536 
Q 3100 3488 3366 3391 
z
" transform="scale(0.015625)"/>
      <path id="DejaVuSans-Bold-68" d="M 4056 2131 
L 4056 0 
L 2931 0 
L 2931 347 
L 2931 1625 
Q 2931 2084 2911 2256 
Q 2891 2428 2841 2509 
Q 2775 2619 2662 2680 
Q 2550 2741 2406 2741 
Q 2056 2741 1856 2470 
Q 1656 2200 1656 1722 
L 1656 0 
L 538 0 
L 538 4863 
L 1656 4863 
L 1656 2988 
Q 1909 3294 2193 3439 
Q 2478 3584 2822 3584 
Q 3428 3584 3742 3212 
Q 4056 2841 4056 2131 
z
" transform="scale(0.015625)"/>
      <path id="DejaVuSans-Bold-6b" d="M 538 4863 
L 1656 4863 
L 1656 2216 
L 2944 3500 
L 4244 3500 
L 2534 1894 
L 4378 0 
L 3022 0 
L 1656 1459 
L 1656 0 
L 538 0 
L 538 4863 
z
" transform="scale(0.015625)"/>
      <path id="DejaVuSans-Bold-72" d="M 3138 2547 
Q 2991 2616 2845 2648 
Q 2700 2681 2553 2681 
Q 2122 2681 1889 2404 
Q 1656 2128 1656 1613 
L 1656 0 
L 538 0 
L 538 3500 
L 1656 3500 
L 1656 2925 
Q 1872 3269 2151 3426 
Q 2431 3584 2822 3584 
Q 2878 3584 2943 3579 
Q 3009 3575 3134 3559 
L 3138 2547 
z
" transform="scale(0.015625)"/>
     </defs>
     <use xlink:href="#DejaVuSans-Bold-63"/>
     <use xlink:href="#DejaVuSans-Bold-68" transform="translate(59.277344 0)"/>
     <use xlink:href="#DejaVuSans-Bold-65" transform="translate(130.46875 0)"/>
     <use xlink:href="#DejaVuSans-Bold-63" transform="translate(198.291016 0)"/>
     <use xlink:href="#DejaVuSans-Bold-6b" transform="translate(257.568359 0)"/>
     <use xlink:href="#DejaVuSans-Bold-65" transform="translate(321.447266 0)"/>
     <use xlink:href="#DejaVuSans-Bold-72" transform="translate(389.269531 0)"/>
    </g>
    <!-- in Rust -->
    <g style="fill: #ffffff" transform="translate(425.606644 184.895851) scale(0.12 -0.12)">
     <defs>
      <path id="DejaVuSans-Bold-69" d="M 538 3500 
L 1656 3500 
L 1656 0 
L 538 0 
L 538 3500 
z
M 538 4863 
L 1656 4863 
L 1656 3950 
L 538 3950 
L 538 4863 
z
" transform="scale(0.015625)"/>
      <path id="DejaVuSans-Bold-6e" d="M 4056 2131 
L 4056 0 
L 2931 0 
L 2931 347 
L 2931 1631 
Q 2931 2084 2911 2256 
Q 2891 2428 2841 2509 
Q 2775 2619 2662 2680 
Q 2550 2741 2406 2741 
Q 2056 2741 1856 2470 
Q 1656 2200 1656 1722 
L 1656 0 
L 538 0 
L 538 3500 
L 1656 3500 
L 1656 2988 
Q 1909 3294 2193 3439 
Q 2478 3584 2822 3584 
Q 3428 3584 3742 3212 
Q 4056 2841 4056 2131 
z
" transform="scale(0.015625)"/>
      <path id="DejaVuSans-Bold-20" transform="scale(0.015625)"/>
      <path id="DejaVuSans-Bold-52" d="M 2297 2597 
Q 2675 2597 2839 2737 
Q 3003 2878 3003 3200 
Q 3003 3519 2839 3656 
Q 2675 3794 2297 3794 
L 1791 3794 
L 1791 2597 
L 2297 2597 
z
M 1791 1766 
L 1791 0 
L 588 0 
L 588 4666 
L 2425 4666 
Q 3347 4666 3776 4356 
Q 4206 4047 4206 3378 
Q 4206 2916 3982 2619 
Q 3759 2322 3309 2181 
Q 3556 2125 3751 1926 
Q 3947 1728 4147 1325 
L 4800 0 
L 3519 0 
L 2950 1159 
Q 2778 1509 2601 1637 
Q 2425 1766 2131 1766 
L 1791 1766 
z
" transform="scale(0.015625)"/>
      <path id="DejaVuSans-Bold-75" d="M 500 1363 
L 500 3500 
L 1625 3500 
L 1625 3150 
Q 1625 2866 1622 2436 
Q 1619 2006 1619 1863 
Q 1619 1441 1641 1255 
Q 1663 1069 1716 984 
Q 1784 875 1895 815 
Q 2006 756 2150 756 
Q 2500 756 2700 1025 
Q 2900 1294 2900 1772 
L 2900 3500 
L 4019 3500 
L 4019 0 
L 2900 0 
L 2900 506 
Q 2647 200 2364 54 
Q 2081 -91 1741 -91 
Q 1134 -91 817 281 
Q 500 653 500 1363 
z
" transform="scale(0.015625)"/>
      <path id="DejaVuSans-Bold-73" d="M 3272 3391 
L 3272 2541 
Q 2913 2691 2578 2766 
Q 2244 2841 1947 2841 
Q 1628 2841 1473 2761 
Q 1319 2681 1319 2516 
Q 1319 2381 1436 2309 
Q 1553 2238 1856 2203 
L 2053 2175 
Q 2913 2066 3209 1816 
Q 3506 1566 3506 1031 
Q 3506 472 3093 190 
Q 2681 -91 1863 -91 
Q 1516 -91 1145 -36 
Q 775 19 384 128 
L 384 978 
Q 719 816 1070 734 
Q 1422 653 1784 653 
Q 2113 653 2278 743 
Q 2444 834 2444 1013 
Q 2444 1163 2330 1236 
Q 2216 1309 1875 1350 
L 1678 1375 
Q 931 1469 631 1722 
Q 331 1975 331 2491 
Q 331 3047 712 3315 
Q 1094 3584 1881 3584 
Q 2191 3584 2531 3537 
Q 2872 3491 3272 3391 
z
" transform="scale(0.015625)"/>
      <path id="DejaVuSans-Bold-74" d="M 1759 4494 
L 1759 3500 
L 2913 3500 
L 2913 2700 
L 1759 2700 
L 1759 1216 
Q 1759 972 1856 886 
Q 1953 800 2241 800 
L 2816 800 
L 2816 0 
L 1856 0 
Q 1194 0 917 276 
Q 641 553 641 1216 
L 641 2700 
L 84 2700 
L 84 3500 
L 641 3500 
L 641 4494 
L 1759 4494 
z
" transform="scale(0.015625)"/>
     </defs>
     <use xlink:href="#DejaVuSans-Bold-69"/>
     <use xlink:href="#DejaVuSans-Bold-6e" transform="translate(34.277344 0)"/>
     <use xlink:href="#DejaVuSans-Bold-20" transform="translate(105.46875 0)"/>
     <use xlink:href="#DejaVuSans-Bold-52" transform="translate(140.283203 0)"/>
     <use xlink:href="#DejaVuSans-Bold-75" transform="translate(217.285156 0)"/>
     <use xlink:href="#DejaVuSans-Bold-73" transform="translate(288.476562 0)"/>
     <use xlink:href="#DejaVuSans-Bold-74" transform="translate(347.998047 0)"/>
    </g>
   </g>
   <g id="text_12">
    <!-- random -->
    <g transform="translate(363.851148 110.237505) scale(0.12 -0.12)">
     <defs>
      <path id="DejaVuSans-Bold-61" d="M 2106 1575 
Q 1756 1575 1579 1456 
Q 1403 1338 1403 1106 
Q 1403 894 1545 773 
Q 1688 653 1941 653 
Q 2256 653 2472 879 
Q 2688 1106 2688 1447 
L 2688 1575 
L 2106 1575 
z
M 3816 1997 
L 3816 0 
L 2688 0 
L 2688 519 
Q 2463 200 2181 54 
Q 1900 -91 1497 -91 
Q 953 -91 614 226 
Q 275 544 275 1050 
Q 275 1666 698 1953 
Q 1122 2241 2028 2241 
L 2688 2241 
L 2688 2328 
Q 2688 2594 2478 2717 
Q 2269 2841 1825 2841 
Q 1466 2841 1156 2769 
Q 847 2697 581 2553 
L 581 3406 
Q 941 3494 1303 3539 
Q 1666 3584 2028 3584 
Q 2975 3584 3395 3211 
Q 3816 2838 3816 1997 
z
" transform="scale(0.015625)"/>
     </defs>
     <use xlink:href="#DejaVuSans-Bold-72"/>
     <use xlink:href="#DejaVuSans-Bold-61" transform="translate(49.316406 0)"/>
     <use xlink:href="#DejaVuSans-Bold-6e" transform="translate(116.796875 0)"/>
     <use xlink:href="#DejaVuSans-Bold-64" transform="translate(187.988281 0)"/>
     <use xlink:href="#DejaVuSans-Bold-6f" transform="translate(259.570312 0)"/>
     <use xlink:href="#DejaVuSans-Bold-6d" transform="translate(328.271484 0)"/>
    </g>
    <!-- simulation -->
    <g transform="translate(354.223961 122.580705) scale(0.12 -0.12)">
     <use xlink:href="#DejaVuSans-Bold-73"/>
     <use xlink:href="#DejaVuSans-Bold-69" transform="translate(59.521484 0)"/>
     <use xlink:href="#DejaVuSans-Bold-6d" transform="translate(93.798828 0)"/>
     <use xlink:href="#DejaVuSans-Bold-75" transform="translate(197.998047 0)"/>
     <use xlink:href="#DejaVuSans-Bold-6c" transform="translate(269.189453 0)"/>
     <use xlink:href="#DejaVuSans-Bold-61" transform="translate(303.466797 0)"/>
     <use xlink:href="#DejaVuSans-Bold-74" transform="translate(370.947266 0)"/>
     <use xlink:href="#DejaVuSans-Bold-69" transform="translate(418.75 0)"/>
     <use xlink:href="#DejaVuSans-Bold-6f" transform="translate(453.027344 0)"/>
     <use xlink:href="#DejaVuSans-Bold-6e" transform="translate(521.728516 0)"/>
    </g>
    <!-- in Rust -->
    <g transform="translate(366.052398 134.923905) scale(0.12 -0.12)">
     <use xlink:href="#DejaVuSans-Bold-69"/>
     <use xlink:href="#DejaVuSans-Bold-6e" transform="translate(34.277344 0)"/>
     <use xlink:href="#DejaVuSans-Bold-20" transform="translate(105.46875 0)"/>
     <use xlink:href="#DejaVuSans-Bold-52" transform="translate(140.283203 0)"/>
     <use xlink:href="#DejaVuSans-Bold-75" transform="translate(217.285156 0)"/>
     <use xlink:href="#DejaVuSans-Bold-73" transform="translate(288.476562 0)"/>
     <use xlink:href="#DejaVuSans-Bold-74" transform="translate(347.998047 0)"/>
    </g>
   </g>
   <g id="text_13">
    <!-- lint -->
    <g transform="translate(300.803914 122.580705) scale(0.12 -0.12)">
     <use xlink:href="#DejaVuSans-Bold-6c"/>
     <use xlink:href="#DejaVuSans-Bold-69" transform="translate(34.277344 0)"/>
     <use xlink:href="#DejaVuSans-Bold-6e" transform="translate(68.554688 0)"/>
     <use xlink:href="#DejaVuSans-Bold-74" transform="translate(139.746094 0)"/>
    </g>
   </g>
   <g id="text_14">
    <!-- state -->
    <g transform="translate(235.077168 166.381051) scale(0.12 -0.12)">
     <use xlink:href="#DejaVuSans-Bold-73"/>
     <use xlink:href="#DejaVuSans-Bold-74" transform="translate(59.521484 0)"/>
     <use xlink:href="#DejaVuSans-Bold-61" transform="translate(107.324219 0)"/>
     <use xlink:href="#DejaVuSans-Bold-74" transform="translate(174.804688 0)"/>
     <use xlink:href="#DejaVuSans-Bold-65" transform="translate(222.607422 0)"/>
    </g>
    <!-- enumeration -->
    <g transform="translate(209.242481 178.724251) scale(0.12 -0.12)">
     <use xlink:href="#DejaVuSans-Bold-65"/>
     <use xlink:href="#DejaVuSans-Bold-6e" transform="translate(67.822266 0)"/>
     <use xlink:href="#DejaVuSans-Bold-75" transform="translate(139.013672 0)"/>
     <use xlink:href="#DejaVuSans-Bold-6d" transform="translate(210.205078 0)"/>
     <use xlink:href="#DejaVuSans-Bold-65" transform="translate(314.404297 0)"/>
     <use xlink:href="#DejaVuSans-Bold-72" transform="translate(382.226562 0)"/>
     <use xlink:href="#DejaVuSans-Bold-61" transform="translate(431.542969 0)"/>
     <use xlink:href="#DejaVuSans-Bold-74" transform="translate(499.023438 0)"/>
     <use xlink:href="#DejaVuSans-Bold-69" transform="translate(546.826172 0)"/>
     <use xlink:href="#DejaVuSans-Bold-6f" transform="translate(581.103516 0)"/>
     <use xlink:href="#DejaVuSans-Bold-6e" transform="translate(649.804688 0)"/>
    </g>
   </g>
   <g id="text_15">
    <!-- random -->
    <g transform="translate(211.327875 223.207051) scale(0.12 -0.12)">
     <use xlink:href="#DejaVuSans-Bold-72"/>
     <use xlink:href="#DejaVuSans-Bold-61" transform="translate(49.316406 0)"/>
     <use xlink:href="#DejaVuSans-Bold-6e" transform="translate(116.796875 0)"/>
     <use xlink:href="#DejaVuSans-Bold-64" transform="translate(187.988281 0)"/>
     <use xlink:href="#DejaVuSans-Bold-6f" transform="translate(259.570312 0)"/>
     <use xlink:href="#DejaVuSans-Bold-6d" transform="translate(328.271484 0)"/>
    </g>
    <!-- simulation -->
    <g transform="translate(201.700688 235.550251) scale(0.12 -0.12)">
     <use xlink:href="#DejaVuSans-Bold-73"/>
     <use xlink:href="#DejaVuSans-Bold-69" transform="translate(59.521484 0)"/>
     <use xlink:href="#DejaVuSans-Bold-6d" transform="translate(93.798828 0)"/>
     <use xlink:href="#DejaVuSans-Bold-75" transform="translate(197.998047 0)"/>
     <use xlink:href="#DejaVuSans-Bold-6c" transform="translate(269.189453 0)"/>
     <use xlink:href="#DejaVuSans-Bold-61" transform="translate(303.466797 0)"/>
     <use xlink:href="#DejaVuSans-Bold-74" transform="translate(370.947266 0)"/>
     <use xlink:href="#DejaVuSans-Bold-69" transform="translate(418.75 0)"/>
     <use xlink:href="#DejaVuSans-Bold-6f" transform="translate(453.027344 0)"/>
     <use xlink:href="#DejaVuSans-Bold-6e" transform="translate(521.728516 0)"/>
    </g>
   </g>
   <g id="text_16">
    <!-- spec -->
    <g transform="translate(237.010293 280.033051) scale(0.12 -0.12)">
     <defs>
      <path id="DejaVuSans-Bold-70" d="M 1656 506 
L 1656 -1331 
L 538 -1331 
L 538 3500 
L 1656 3500 
L 1656 2988 
Q 1888 3294 2169 3439 
Q 2450 3584 2816 3584 
Q 3463 3584 3878 3070 
Q 4294 2556 4294 1747 
Q 4294 938 3878 423 
Q 3463 -91 2816 -91 
Q 2450 -91 2169 54 
Q 1888 200 1656 506 
z
M 2400 2772 
Q 2041 2772 1848 2508 
Q 1656 2244 1656 1747 
Q 1656 1250 1848 986 
Q 2041 722 2400 722 
Q 2759 722 2948 984 
Q 3138 1247 3138 1747 
Q 3138 2247 2948 2509 
Q 2759 2772 2400 2772 
z
" transform="scale(0.015625)"/>
     </defs>
     <use xlink:href="#DejaVuSans-Bold-73"/>
     <use xlink:href="#DejaVuSans-Bold-70" transform="translate(59.521484 0)"/>
     <use xlink:href="#DejaVuSans-Bold-65" transform="translate(131.103516 0)"/>
     <use xlink:href="#DejaVuSans-Bold-63" transform="translate(198.925781 0)"/>
    </g>
    <!-- execution -->
    <g transform="translate(219.346856 292.376251) scale(0.12 -0.12)">
     <defs>
      <path id="DejaVuSans-Bold-78" d="M 1422 1791 
L 159 3500 
L 1344 3500 
L 2059 2463 
L 2784 3500 
L 3969 3500 
L 2706 1797 
L 4031 0 
L 2847 0 
L 2059 1106 
L 1281 0 
L 97 0 
L 1422 1791 
z
" transform="scale(0.015625)"/>
     </defs>
     <use xlink:href="#DejaVuSans-Bold-65"/>
     <use xlink:href="#DejaVuSans-Bold-78" transform="translate(67.822266 0)"/>
     <use xlink:href="#DejaVuSans-Bold-65" transform="translate(132.324219 0)"/>
     <use xlink:href="#DejaVuSans-Bold-63" transform="translate(200.146484 0)"/>
     <use xlink:href="#DejaVuSans-Bold-75" transform="translate(259.423828 0)"/>
     <use xlink:href="#DejaVuSans-Bold-74" transform="translate(330.615234 0)"/>
     <use xlink:href="#DejaVuSans-Bold-69" transform="translate(378.417969 0)"/>
     <use xlink:href="#DejaVuSans-Bold-6f" transform="translate(412.695312 0)"/>
     <use xlink:href="#DejaVuSans-Bold-6e" transform="translate(481.396484 0)"/>
    </g>
   </g>
   <g id="text_17">
    <!-- spec -->
    <g style="fill: #ffffff" transform="translate(296.564539 330.004997) scale(0.12 -0.12)">
     <use xlink:href="#DejaVuSans-Bold-73"/>
     <use xlink:href="#DejaVuSans-Bold-70" transform="translate(59.521484 0)"/>
     <use xlink:href="#DejaVuSans-Bold-65" transform="translate(131.103516 0)"/>
     <use xlink:href="#DejaVuSans-Bold-63" transform="translate(198.925781 0)"/>
    </g>
    <!-- in Lean 4 -->
    <g style="fill: #ffffff" transform="translate(281.163289 342.348197) scale(0.12 -0.12)">
     <defs>
      <path id="DejaVuSans-Bold-4c" d="M 588 4666 
L 1791 4666 
L 1791 909 
L 3903 909 
L 3903 0 
L 588 0 
L 588 4666 
z
" transform="scale(0.015625)"/>
      <path id="DejaVuSans-Bold-34" d="M 2356 3675 
L 1038 1722 
L 2356 1722 
L 2356 3675 
z
M 2156 4666 
L 3494 4666 
L 3494 1722 
L 4159 1722 
L 4159 850 
L 3494 850 
L 3494 0 
L 2356 0 
L 2356 850 
L 288 850 
L 288 1881 
L 2156 4666 
z
" transform="scale(0.015625)"/>
     </defs>
     <use xlink:href="#DejaVuSans-Bold-69"/>
     <use xlink:href="#DejaVuSans-Bold-6e" transform="translate(34.277344 0)"/>
     <use xlink:href="#DejaVuSans-Bold-20" transform="translate(105.46875 0)"/>
     <use xlink:href="#DejaVuSans-Bold-4c" transform="translate(140.283203 0)"/>
     <use xlink:href="#DejaVuSans-Bold-65" transform="translate(204.003906 0)"/>
     <use xlink:href="#DejaVuSans-Bold-61" transform="translate(271.826172 0)"/>
     <use xlink:href="#DejaVuSans-Bold-6e" transform="translate(339.306641 0)"/>
     <use xlink:href="#DejaVuSans-Bold-20" transform="translate(410.498047 0)"/>
     <use xlink:href="#DejaVuSans-Bold-34" transform="translate(445.3125 0)"/>
    </g>
   </g>
   <g id="text_18">
    <!-- spec -->
    <g style="fill: #ffffff" transform="translate(383.467223 326.210744) scale(0.12 -0.12)">
     <use xlink:href="#DejaVuSans-Bold-73"/>
     <use xlink:href="#DejaVuSans-Bold-70" transform="translate(59.521484 0)"/>
     <use xlink:href="#DejaVuSans-Bold-65" transform="translate(131.103516 0)"/>
     <use xlink:href="#DejaVuSans-Bold-63" transform="translate(198.925781 0)"/>
    </g>
    <!-- in TLA⁺ -->
    <g style="fill: #ffffff" transform="translate(374.815973 338.553944) scale(0.12 -0.12)">
     <defs>
      <path id="DejaVuSans-Bold-54" d="M 31 4666 
L 4331 4666 
L 4331 3756 
L 2784 3756 
L 2784 0 
L 1581 0 
L 1581 3756 
L 31 3756 
L 31 4666 
z
" transform="scale(0.015625)"/>
      <path id="DejaVuSans-Bold-41" d="M 3419 850 
L 1538 850 
L 1241 0 
L 31 0 
L 1759 4666 
L 3194 4666 
L 4922 0 
L 3713 0 
L 3419 850 
z
M 1838 1716 
L 3116 1716 
L 2478 3572 
L 1838 1716 
z
" transform="scale(0.015625)"/>
      <path id="DejaVuSans-Bold-207a" d="M 1925 4334 
L 1925 3419 
L 2950 3419 
L 2950 3003 
L 1925 3003 
L 1925 2088 
L 1456 2088 
L 1456 3003 
L 428 3003 
L 428 3419 
L 1456 3419 
L 1456 4334 
L 1925 4334 
z
" transform="scale(0.015625)"/>
     </defs>
     <use xlink:href="#DejaVuSans-Bold-69"/>
     <use xlink:href="#DejaVuSans-Bold-6e" transform="translate(34.277344 0)"/>
     <use xlink:href="#DejaVuSans-Bold-20" transform="translate(105.46875 0)"/>
     <use xlink:href="#DejaVuSans-Bold-54" transform="translate(140.283203 0)"/>
     <use xlink:href="#DejaVuSans-Bold-4c" transform="translate(208.496094 0)"/>
     <use xlink:href="#DejaVuSans-Bold-41" transform="translate(272.216797 0)"/>
     <use xlink:href="#DejaVuSans-Bold-207a" transform="translate(349.609375 0)"/>
    </g>
   </g>
   <g id="text_19">
    <!-- Apalache -->
    <g style="fill: #ffffff" transform="translate(418.362582 279.986176) scale(0.12 -0.12)">
     <use xlink:href="#DejaVuSans-Bold-41"/>
     <use xlink:href="#DejaVuSans-Bold-70" transform="translate(77.392578 0)"/>
     <use xlink:href="#DejaVuSans-Bold-61" transform="translate(148.974609 0)"/>
     <use xlink:href="#DejaVuSans-Bold-6c" transform="translate(216.455078 0)"/>
     <use xlink:href="#DejaVuSans-Bold-61" transform="translate(250.732422 0)"/>
     <use xlink:href="#DejaVuSans-Bold-63" transform="translate(318.212891 0)"/>
     <use xlink:href="#DejaVuSans-Bold-68" transform="translate(377.490234 0)"/>
     <use xlink:href="#DejaVuSans-Bold-65" transform="translate(448.681641 0)"/>
    </g>
    <!-- integration -->
    <g style="fill: #ffffff" transform="translate(411.467269 292.329376) scale(0.12 -0.12)">
     <defs>
      <path id="DejaVuSans-Bold-67" d="M 2919 594 
Q 2688 288 2409 144 
Q 2131 0 1766 0 
Q 1125 0 706 504 
Q 288 1009 288 1791 
Q 288 2575 706 3076 
Q 1125 3578 1766 3578 
Q 2131 3578 2409 3434 
Q 2688 3291 2919 2981 
L 2919 3500 
L 4044 3500 
L 4044 353 
Q 4044 -491 3511 -936 
Q 2978 -1381 1966 -1381 
Q 1638 -1381 1331 -1331 
Q 1025 -1281 716 -1178 
L 716 -306 
Q 1009 -475 1290 -558 
Q 1572 -641 1856 -641 
Q 2406 -641 2662 -400 
Q 2919 -159 2919 353 
L 2919 594 
z
M 2181 2772 
Q 1834 2772 1640 2515 
Q 1447 2259 1447 1791 
Q 1447 1309 1634 1061 
Q 1822 813 2181 813 
Q 2531 813 2725 1069 
Q 2919 1325 2919 1791 
Q 2919 2259 2725 2515 
Q 2531 2772 2181 2772 
z
" transform="scale(0.015625)"/>
     </defs>
     <use xlink:href="#DejaVuSans-Bold-69"/>
     <use xlink:href="#DejaVuSans-Bold-6e" transform="translate(34.277344 0)"/>
     <use xlink:href="#DejaVuSans-Bold-74" transform="translate(105.46875 0)"/>
     <use xlink:href="#DejaVuSans-Bold-65" transform="translate(153.271484 0)"/>
     <use xlink:href="#DejaVuSans-Bold-67" transform="translate(221.09375 0)"/>
     <use xlink:href="#DejaVuSans-Bold-72" transform="translate(292.675781 0)"/>
     <use xlink:href="#DejaVuSans-Bold-61" transform="translate(341.992188 0)"/>
     <use xlink:href="#DejaVuSans-Bold-74" transform="translate(409.472656 0)"/>
     <use xlink:href="#DejaVuSans-Bold-69" transform="translate(457.275391 0)"/>
     <use xlink:href="#DejaVuSans-Bold-6f" transform="translate(491.552734 0)"/>
     <use xlink:href="#DejaVuSans-Bold-6e" transform="translate(560.253906 0)"/>
    </g>
   </g>
   <g id="text_20">
    <!-- TLC -->
    <g style="fill: #ffffff" transform="translate(452.260313 223.160176) scale(0.12 -0.12)">
     <defs>
      <path id="DejaVuSans-Bold-43" d="M 4288 256 
Q 3956 84 3597 -3 
Q 3238 -91 2847 -91 
Q 1681 -91 1000 561 
Q 319 1213 319 2328 
Q 319 3447 1000 4098 
Q 1681 4750 2847 4750 
Q 3238 4750 3597 4662 
Q 3956 4575 4288 4403 
L 4288 3438 
Q 3953 3666 3628 3772 
Q 3303 3878 2944 3878 
Q 2300 3878 1931 3465 
Q 1563 3053 1563 2328 
Q 1563 1606 1931 1193 
Q 2300 781 2944 781 
Q 3303 781 3628 887 
Q 3953 994 4288 1222 
L 4288 256 
z
" transform="scale(0.015625)"/>
     </defs>
     <use xlink:href="#DejaVuSans-Bold-54"/>
     <use xlink:href="#DejaVuSans-Bold-4c" transform="translate(68.212891 0)"/>
     <use xlink:href="#DejaVuSans-Bold-43" transform="translate(131.933594 0)"/>
    </g>
    <!-- integration -->
    <g style="fill: #ffffff" transform="translate(426.69375 235.503376) scale(0.12 -0.12)">
     <use xlink:href="#DejaVuSans-Bold-69"/>
     <use xlink:href="#DejaVuSans-Bold-6e" transform="translate(34.277344 0)"/>
     <use xlink:href="#DejaVuSans-Bold-74" transform="translate(105.46875 0)"/>
     <use xlink:href="#DejaVuSans-Bold-65" transform="translate(153.271484 0)"/>
     <use xlink:href="#DejaVuSans-Bold-67" transform="translate(221.09375 0)"/>
     <use xlink:href="#DejaVuSans-Bold-72" transform="translate(292.675781 0)"/>
     <use xlink:href="#DejaVuSans-Bold-61" transform="translate(341.992188 0)"/>
     <use xlink:href="#DejaVuSans-Bold-74" transform="translate(409.472656 0)"/>
     <use xlink:href="#DejaVuSans-Bold-69" transform="translate(457.275391 0)"/>
     <use xlink:href="#DejaVuSans-Bold-6f" transform="translate(491.552734 0)"/>
     <use xlink:href="#DejaVuSans-Bold-6e" transform="translate(560.253906 0)"/>
    </g>
   </g>
   <g id="patch_13">
    <path d="M 400.202592 197.618702 
Q 404.943802 194.881363 408.668354 192.730993 
" clip-path="url(#p5b0b9923d8)" style="fill: none; stroke: #6b7280; stroke-width: 1.05; stroke-linecap: round"/>
    <path d="M 403.311432 193.052532 
L 408.668354 192.730993 
L 405.711432 197.209453 
z
" clip-path="url(#p5b0b9923d8)" style="fill: #6b7280; stroke: #6b7280; stroke-width: 1.05; stroke-linecap: round"/>
   </g>
   <g id="patch_14">
    <path d="M 370.388056 172.601336 
Q 372.260506 167.456822 373.731447 163.415447 
" clip-path="url(#p5b0b9923d8)" style="fill: none; stroke: #6b7280; stroke-width: 1.05; stroke-linecap: round"/>
    <path d="M 369.834488 167.105123 
L 373.731447 163.415447 
L 374.345012 168.74682 
z
" clip-path="url(#p5b0b9923d8)" style="fill: #6b7280; stroke: #6b7280; stroke-width: 1.05; stroke-linecap: round"/>
   </g>
   <g id="patch_15">
    <path d="M 331.467944 172.601336 
Q 329.595494 167.456822 328.124553 163.415447 
" clip-path="url(#p5b0b9923d8)" style="fill: none; stroke: #6b7280; stroke-width: 1.05; stroke-linecap: round"/>
    <path d="M 327.510988 168.74682 
L 328.124553 163.415447 
L 332.021512 167.105123 
z
" clip-path="url(#p5b0b9923d8)" style="fill: #6b7280; stroke: #6b7280; stroke-width: 1.05; stroke-linecap: round"/>
   </g>
   <g id="patch_16">
    <path d="M 301.653408 197.618702 
Q 296.912198 194.881363 293.187646 192.730993 
" clip-path="url(#p5b0b9923d8)" style="fill: none; stroke: #6b7280; stroke-width: 1.05; stroke-linecap: round"/>
    <path d="M 296.144568 197.209453 
L 293.187646 192.730993 
L 298.544568 193.052532 
z
" clip-path="url(#p5b0b9923d8)" style="fill: #6b7280; stroke: #6b7280; stroke-width: 1.05; stroke-linecap: round"/>
   </g>
   <g id="patch_17">
    <path d="M 294.030602 226.067401 
Q 288.555924 226.067401 284.255183 226.067401 
" clip-path="url(#p5b0b9923d8)" style="fill: none; stroke: #6b7280; stroke-width: 1.05; stroke-linecap: round"/>
    <path d="M 289.055183 228.467401 
L 284.255183 226.067401 
L 289.055183 223.667401 
z
" clip-path="url(#p5b0b9923d8)" style="fill: #6b7280; stroke: #6b7280; stroke-width: 1.05; stroke-linecap: round"/>
   </g>
   <g id="patch_18">
    <path d="M 301.653408 254.5161 
Q 296.912198 257.253439 293.187646 259.40381 
" clip-path="url(#p5b0b9923d8)" style="fill: none; stroke: #6b7280; stroke-width: 1.05; stroke-linecap: round"/>
    <path d="M 298.544568 259.082271 
L 293.187646 259.40381 
L 296.144568 254.925349 
z
" clip-path="url(#p5b0b9923d8)" style="fill: #6b7280; stroke: #6b7280; stroke-width: 1.05; stroke-linecap: round"/>
   </g>
   <g id="patch_19">
    <path d="M 331.467944 279.533466 
Q 329.595494 284.67798 328.124553 288.719356 
" clip-path="url(#p5b0b9923d8)" style="fill: none; stroke: #6b7280; stroke-width: 1.05; stroke-linecap: round"/>
    <path d="M 332.021512 285.029679 
L 328.124553 288.719356 
L 327.510988 283.387983 
z
" clip-path="url(#p5b0b9923d8)" style="fill: #6b7280; stroke: #6b7280; stroke-width: 1.05; stroke-linecap: round"/>
   </g>
   <g id="patch_20">
    <path d="M 374.973879 277.633956 
Q 377.287578 282.595699 379.10515 286.493495 
" clip-path="url(#p5b0b9923d8)" style="fill: none; stroke: #6b7280; stroke-width: 1.05; stroke-linecap: round"/>
    <path d="M 379.251721 281.128934 
L 379.10515 286.493495 
L 374.901444 283.157501 
z
" clip-path="url(#p5b0b9923d8)" style="fill: #6b7280; stroke: #6b7280; stroke-width: 1.05; stroke-linecap: round"/>
   </g>
   <g id="patch_21">
    <path d="M 400.202592 254.5161 
Q 404.943802 257.253439 408.668354 259.40381 
" clip-path="url(#p5b0b9923d8)" style="fill: none; stroke: #6b7280; stroke-width: 1.05; stroke-linecap: round"/>
    <path d="M 405.711432 254.925349 
L 408.668354 259.40381 
L 403.311432 259.082271 
z
" clip-path="url(#p5b0b9923d8)" style="fill: #6b7280; stroke: #6b7280; stroke-width: 1.05; stroke-linecap: round"/>
   </g>
   <g id="patch_22">
    <path d="M 407.825398 226.067401 
Q 413.300076 226.067401 417.600817 226.067401 
" clip-path="url(#p5b0b9923d8)" style="fill: none; stroke: #6b7280; stroke-width: 1.05; stroke-linecap: round"/>
    <path d="M 412.800817 223.667401 
L 417.600817 226.067401 
L 412.800817 228.467401 
z
" clip-path="url(#p5b0b9923d8)" style="fill: #6b7280; stroke: #6b7280; stroke-width: 1.05; stroke-linecap: round"/>
   </g>
   <g id="patch_23">
    <path d="M 350.928 288.160201 
C 367.395203 288.160201 383.190169 281.617712 394.83424 269.973641 
C 406.478311 258.32957 413.0208 242.534604 413.0208 226.067401 
C 413.0208 209.600198 406.478311 193.805232 394.83424 182.161161 
C 383.190169 170.51709 367.395203 163.974601 350.928 163.974601 
C 334.460797 163.974601 318.665831 170.51709 307.02176 182.161161 
C 295.377689 193.805232 288.8352 209.600198 288.8352 226.067401 
C 288.8352 242.534604 295.377689 258.32957 307.02176 269.973641 
C 318.665831 281.617712 334.460797 288.160201 350.928 288.160201 
z
" clip-path="url(#p5b0b9923d8)" style="fill: #ffffff; stroke: #111827; stroke-width: 1.8; stroke-linejoin: miter"/>
   </g>
   <g id="text_21">
    <!-- Wunderspec -->
    <g style="fill: #111827" transform="translate(294.9605 219.394401) scale(0.16 -0.16)">
     <defs>
      <path id="DejaVuSans-Bold-57" d="M 191 4666 
L 1344 4666 
L 2150 1275 
L 2950 4666 
L 4109 4666 
L 4909 1275 
L 5716 4666 
L 6859 4666 
L 5759 0 
L 4372 0 
L 3525 3547 
L 2688 0 
L 1300 0 
L 191 4666 
z
" transform="scale(0.015625)"/>
     </defs>
     <use xlink:href="#DejaVuSans-Bold-57"/>
     <use xlink:href="#DejaVuSans-Bold-75" transform="translate(110.302734 0)"/>
     <use xlink:href="#DejaVuSans-Bold-6e" transform="translate(181.494141 0)"/>
     <use xlink:href="#DejaVuSans-Bold-64" transform="translate(252.685547 0)"/>
     <use xlink:href="#DejaVuSans-Bold-65" transform="translate(324.267578 0)"/>
     <use xlink:href="#DejaVuSans-Bold-72" transform="translate(392.089844 0)"/>
     <use xlink:href="#DejaVuSans-Bold-73" transform="translate(441.40625 0)"/>
     <use xlink:href="#DejaVuSans-Bold-70" transform="translate(500.927734 0)"/>
     <use xlink:href="#DejaVuSans-Bold-65" transform="translate(572.509766 0)"/>
     <use xlink:href="#DejaVuSans-Bold-63" transform="translate(640.332031 0)"/>
    </g>
   </g>
   <g id="text_22">
    <!-- one spec -->
    <g style="fill: #4b5563" transform="translate(327.304641 232.168295) scale(0.105 -0.105)">
     <use xlink:href="#DejaVuSans-6f"/>
     <use xlink:href="#DejaVuSans-6e" transform="translate(61.181641 0)"/>
     <use xlink:href="#DejaVuSans-65" transform="translate(124.560547 0)"/>
     <use xlink:href="#DejaVuSans-20" transform="translate(186.083984 0)"/>
     <use xlink:href="#DejaVuSans-73" transform="translate(217.871094 0)"/>
     <use xlink:href="#DejaVuSans-70" transform="translate(269.970703 0)"/>
     <use xlink:href="#DejaVuSans-65" transform="translate(333.447266 0)"/>
     <use xlink:href="#DejaVuSans-63" transform="translate(394.970703 0)"/>
    </g>
    <!-- many tools -->
    <g style="fill: #4b5563" transform="translate(321.81757 242.968595) scale(0.105 -0.105)">
     <use xlink:href="#DejaVuSans-6d"/>
     <use xlink:href="#DejaVuSans-61" transform="translate(97.412109 0)"/>
     <use xlink:href="#DejaVuSans-6e" transform="translate(158.691406 0)"/>
     <use xlink:href="#DejaVuSans-79" transform="translate(222.070312 0)"/>
     <use xlink:href="#DejaVuSans-20" transform="translate(281.25 0)"/>
     <use xlink:href="#DejaVuSans-74" transform="translate(313.037109 0)"/>
     <use xlink:href="#DejaVuSans-6f" transform="translate(352.246094 0)"/>
     <use xlink:href="#DejaVuSans-6f" transform="translate(413.427734 0)"/>
     <use xlink:href="#DejaVuSans-6c" transform="translate(474.609375 0)"/>
     <use xlink:href="#DejaVuSans-73" transform="translate(502.392578 0)"/>
    </g>
    <!-- no IDE lock-in -->
    <g style="fill: #4b5563" transform="translate(314.865422 253.768895) scale(0.105 -0.105)">
     <defs>
      <path id="DejaVuSans-45" d="M 628 4666 
L 3578 4666 
L 3578 4134 
L 1259 4134 
L 1259 2753 
L 3481 2753 
L 3481 2222 
L 1259 2222 
L 1259 531 
L 3634 531 
L 3634 0 
L 628 0 
L 628 4666 
z
" transform="scale(0.015625)"/>
     </defs>
     <use xlink:href="#DejaVuSans-6e"/>
     <use xlink:href="#DejaVuSans-6f" transform="translate(63.378906 0)"/>
     <use xlink:href="#DejaVuSans-20" transform="translate(124.560547 0)"/>
     <use xlink:href="#DejaVuSans-49" transform="translate(156.347656 0)"/>
     <use xlink:href="#DejaVuSans-44" transform="translate(185.839844 0)"/>
     <use xlink:href="#DejaVuSans-45" transform="translate(262.841797 0)"/>
     <use xlink:href="#DejaVuSans-20" transform="translate(326.025391 0)"/>
     <use xlink:href="#DejaVuSans-6c" transform="translate(357.8125 0)"/>
     <use xlink:href="#DejaVuSans-6f" transform="translate(385.595703 0)"/>
     <use xlink:href="#DejaVuSans-63" transform="translate(446.777344 0)"/>
     <use xlink:href="#DejaVuSans-6b" transform="translate(501.757812 0)"/>
     <use xlink:href="#DejaVuSans-2d" transform="translate(559.667969 0)"/>
     <use xlink:href="#DejaVuSans-69" transform="translate(595.751953 0)"/>
     <use xlink:href="#DejaVuSans-6e" transform="translate(623.535156 0)"/>
    </g>
    <!-- AI-friendly -->
    <g style="fill: #4b5563" transform="translate(323.972531 264.569195) scale(0.105 -0.105)">
     <use xlink:href="#DejaVuSans-41"/>
     <use xlink:href="#DejaVuSans-49" transform="translate(68.408203 0)"/>
     <use xlink:href="#DejaVuSans-2d" transform="translate(97.900391 0)"/>
     <use xlink:href="#DejaVuSans-66" transform="translate(133.984375 0)"/>
     <use xlink:href="#DejaVuSans-72" transform="translate(169.189453 0)"/>
     <use xlink:href="#DejaVuSans-69" transform="translate(210.302734 0)"/>
     <use xlink:href="#DejaVuSans-65" transform="translate(238.085938 0)"/>
     <use xlink:href="#DejaVuSans-6e" transform="translate(299.609375 0)"/>
     <use xlink:href="#DejaVuSans-64" transform="translate(362.988281 0)"/>
     <use xlink:href="#DejaVuSans-6c" transform="translate(426.464844 0)"/>
     <use xlink:href="#DejaVuSans-79" transform="translate(454.248047 0)"/>
    </g>
   </g>
  </g>
 </g>
 <defs>
  <clipPath id="p5b0b9923d8">
   <rect x="7.2" y="23.711401" width="687.456" height="399.168"/>
  </clipPath>
 </defs>
</svg>
